<?xml version="1.0" standalone="no"?>
<!DOCTYPE svg PUBLIC "-//W3C//DTD SVG 20010904//EN"
 "http://www.w3.org/TR/2001/REC-SVG-20010904/DTD/svg10.dtd">
<svg version="1.0" xmlns="http://www.w3.org/2000/svg"
 width="1300.000000pt" height="909.000000pt" viewBox="0 0 1300.000000 909.000000"
 preserveAspectRatio="xMidYMid meet">
<metadata>
Created by potrace 1.16, written by Peter Selinger 2001-2019
</metadata>
<g transform="translate(0.000000,909.000000) scale(0.100000,-0.100000)"
fill="#000000" stroke="none">
<path d="M5840 8848 c0 -4 8 -29 19 -55 10 -26 31 -97 47 -158 25 -98 28 -127
28 -265 -1 -138 -4 -164 -27 -243 -15 -48 -45 -122 -66 -165 -21 -42 -46 -102
-55 -131 -20 -69 -21 -205 0 -291 21 -90 92 -231 162 -320 l58 -75 50 2 c27 1
77 4 111 8 l62 6 15 52 c20 71 43 194 57 302 16 126 6 413 -20 536 -40 195
-125 403 -231 561 -48 71 -208 252 -210 236z"/>
<path d="M7790 8178 c0 -24 -5 -112 -10 -197 -5 -85 -8 -156 -6 -158 2 -2 26
-6 52 -8 27 -3 65 -7 84 -10 19 -2 58 -7 87 -10 l52 -6 6 38 c4 21 13 72 20
113 23 123 39 240 33 245 -3 3 -22 6 -44 8 l-39 2 -17 -95 -16 -95 0 99 1 100
-29 3 c-16 1 -43 5 -61 7 -35 5 -32 10 -46 -84 -3 -15 -5 -8 -6 17 -2 58 -9
73 -37 73 -22 0 -24 -4 -24 -42z"/>
<path d="M7770 7767 c-18 -86 -66 -393 -63 -397 10 -11 308 -37 315 -27 4 8
18 231 23 382 0 6 -36 15 -80 21 -87 12 -195 24 -195 21z"/>
<path d="M8424 7658 c-55 -62 -142 -238 -203 -412 -69 -194 -64 -401 13 -526
9 -14 21 -45 27 -70 9 -35 25 -58 75 -107 62 -58 64 -63 59 -100 -9 -72 -185
-1198 -190 -1220 -5 -22 -2 -23 55 -23 33 0 60 2 60 5 0 2 14 89 30 192 60
368 70 430 100 623 17 107 40 251 51 319 29 177 19 211 -84 294 -26 21 -47 45
-47 52 0 8 14 29 31 47 39 42 80 123 109 213 34 107 38 289 11 478 -22 150
-47 248 -67 254 -5 2 -19 -7 -30 -19z"/>
<path d="M7686 7293 c-5 -19 -58 -377 -100 -688 -61 -447 -166 -1366 -157
-1376 6 -7 382 -41 388 -36 13 14 122 1082 168 1656 29 361 31 431 12 431 -7
0 -67 7 -132 15 -155 19 -172 19 -179 -2z"/>
<path d="M6111 7097 l-94 -10 7 -206 c7 -213 25 -554 30 -558 1 -2 73 4 159
14 139 14 157 18 157 34 0 34 -104 625 -127 717 -3 12 -12 21 -22 20 -9 0 -58
-6 -110 -11z"/>
<path d="M6885 6820 c-58 -19 -65 -39 -65 -202 0 -143 1 -148 20 -148 19 0 21
-5 18 -67 l-3 -67 -95 -43 -95 -42 -3 -459 -2 -459 42 -6 c24 -4 133 -20 243
-36 110 -16 228 -32 263 -36 l62 -7 -1 299 c-1 164 -5 390 -8 502 l-6 205 -95
40 -95 41 -3 66 c-3 60 -1 67 18 72 19 5 20 13 20 131 0 130 -10 177 -43 205
-21 17 -131 24 -172 11z"/>
<path d="M5339 6650 c0 -14 -2 -38 -3 -55 -2 -16 -6 -147 -11 -290 l-7 -260
52 -202 53 -201 61 -23 c79 -31 106 -38 106 -32 0 3 -18 73 -40 157 -77 297
-90 348 -90 361 0 17 37 26 48 11 5 -6 39 -130 77 -276 37 -146 72 -270 79
-277 12 -12 147 -56 153 -49 2 2 -16 82 -41 177 -25 96 -61 236 -80 312 -24
95 -46 155 -70 195 -19 31 -61 102 -95 157 -33 55 -79 132 -101 170 -89 152
-90 153 -91 125z"/>
<path d="M2920 6593 c-1182 -42 -2090 -204 -2467 -439 -89 -55 -171 -135 -198
-190 -40 -83 -27 -196 31 -275 214 -292 775 -554 1781 -833 331 -92 951 -227
1378 -301 83 -14 202 -35 265 -46 63 -11 158 -26 210 -34 52 -8 176 -26 275
-40 143 -22 186 -25 211 -16 41 15 49 14 34 -4 -11 -13 -8 -15 16 -15 22 0 26
3 14 10 -8 5 -11 10 -7 10 4 0 18 -7 30 -15 57 -37 1117 -145 1872 -190 502
-30 1013 -45 870 -25 -31 4 -39 7 -21 8 28 2 28 3 13 20 -10 10 -17 22 -17 27
0 5 9 -1 20 -13 23 -25 36 -28 43 -9 4 8 6 7 6 -4 2 -33 48 -44 185 -43 195 1
191 0 189 52 -1 7 1 11 5 8 8 -9 33 45 26 56 -4 6 -10 5 -15 -3 -7 -11 -9 -10
-9 4 0 20 11 22 28 5 9 -9 12 -9 12 0 0 7 -6 12 -12 12 -9 0 -8 4 2 11 13 10
13 10 -1 6 -8 -3 -35 -1 -60 3 -26 5 -46 4 -50 -1 -3 -6 -10 -9 -15 -8 -5 1
-16 1 -24 0 -13 -1 -13 -2 0 -11 12 -8 10 -10 -9 -10 -13 0 -21 3 -18 7 4 3 2
12 -4 20 -16 19 -119 18 -119 -1 0 -8 -6 -16 -12 -19 -10 -4 -10 -7 0 -18 15
-16 16 -29 2 -29 -5 0 -9 6 -7 13 1 6 -4 11 -11 9 -8 -1 -11 2 -7 8 3 5 1 10
-5 10 -6 0 -4 8 6 18 17 16 15 17 -47 24 -38 4 -68 3 -73 -2 -6 -6 -19 -10
-31 -11 -11 0 -14 -3 -7 -6 6 -2 10 -9 6 -14 -3 -5 3 -9 14 -9 10 0 24 -11 30
-25 16 -35 15 -44 -3 -18 -15 21 -51 36 -58 24 -2 -3 -2 -1 -1 6 2 7 -1 15 -7
18 -5 4 -7 10 -4 15 13 20 -34 29 -220 39 -666 39 -1235 94 -1910 187 -143 19
-273 33 -288 30 -16 -3 -26 -2 -22 4 6 10 -78 25 -99 17 -7 -3 -18 -1 -23 4
-5 5 -101 25 -214 44 -205 35 -572 106 -749 145 -52 12 -124 28 -160 35 -631
137 -1321 366 -1688 560 -245 130 -422 286 -461 407 -78 239 185 453 719 588
125 31 354 79 410 86 19 2 64 8 100 14 218 33 527 63 830 80 107 5 233 12 280
15 47 2 254 5 460 7 303 1 345 3 220 8 -146 7 -1277 9 -1440 3z"/>
<path d="M9004 6545 c-25 -17 -35 -40 -69 -159 -30 -104 -29 -96 -9 -96 10 0
14 -6 10 -17 -3 -10 -10 -36 -15 -59 l-11 -40 -87 -12 c-47 -6 -90 -15 -94
-19 -4 -5 -67 -217 -139 -473 -73 -255 -135 -471 -138 -478 -4 -12 16 -13 129
-8 136 7 400 34 408 41 5 6 221 766 221 780 0 6 -21 27 -47 47 -27 20 -57 47
-69 60 -20 22 -20 26 -7 71 10 32 19 47 31 47 13 0 24 23 45 99 44 158 37 184
-52 216 -54 19 -81 19 -107 0z"/>
<path d="M6218 6281 c-81 -9 -151 -20 -155 -24 -9 -10 50 -813 61 -824 9 -10
385 -87 391 -81 6 7 -118 887 -131 931 -3 9 -8 16 -12 16 -4 -1 -73 -9 -154
-18z"/>
<path d="M5045 6085 c-240 -56 -358 -136 -340 -231 13 -73 124 -164 300 -249
88 -42 306 -125 395 -150 25 -7 101 -30 170 -50 425 -123 1115 -246 1675 -300
88 -8 180 -17 205 -20 312 -35 1092 -46 1400 -20 285 24 517 70 637 127 26 12
66 41 90 63 38 37 43 47 43 87 0 80 -82 154 -281 254 -50 25 -92 44 -94 42 -1
-2 -5 -13 -9 -24 -5 -18 1 -26 36 -47 111 -65 168 -130 168 -190 0 -117 -226
-202 -645 -243 -198 -19 -745 -22 -995 -6 -765 52 -1477 165 -1995 318 -88 26
-172 48 -187 48 -14 1 -24 4 -22 7 2 4 -31 19 -74 34 -135 48 -333 150 -391
201 -53 47 -81 94 -81 134 0 28 61 93 107 114 l38 17 -3 54 c-5 65 0 65 -147
30z"/>
<path d="M10775 5369 c118 -87 215 -232 215 -320 0 -26 4 -49 10 -51 5 -1 7
-14 3 -26 -4 -18 -8 -21 -15 -10 -7 9 -8 7 -5 -10 3 -12 1 -20 -3 -17 -12 7
-44 -61 -35 -74 3 -6 0 -9 -8 -6 -18 8 -51 -30 -43 -50 4 -12 1 -15 -13 -10
-11 3 -28 -2 -42 -14 -20 -16 -21 -21 -10 -35 8 -9 9 -16 3 -16 -6 0 -12 5
-14 12 -3 9 -12 9 -36 -1 -38 -16 -39 -21 -11 -44 11 -10 18 -21 15 -24 -3 -4
-17 4 -30 16 l-25 23 -35 -22 c-20 -12 -36 -29 -36 -38 0 -14 -2 -14 -9 -3 -7
11 -20 9 -72 -12 -365 -146 -903 -238 -1674 -287 -88 -6 -359 -13 -602 -17
-244 -3 -443 -10 -443 -15 0 -4 -11 -8 -25 -8 -14 0 -25 5 -25 10 0 6 -24 10
-52 10 -38 0 -49 -3 -38 -10 8 -5 10 -10 4 -10 -17 0 -34 -50 -33 -98 l1 -42
49 1 c42 2 49 5 44 20 -3 9 -1 20 5 24 6 4 10 3 9 -2 -1 -4 -1 -17 0 -27 1
-19 11 -19 344 -12 850 16 1517 79 2062 193 94 19 182 41 196 49 15 7 29 10
33 7 3 -4 6 -1 6 6 0 7 6 11 14 8 19 -7 127 23 121 33 -3 5 3 6 13 3 20 -5
185 58 285 109 261 131 353 293 266 467 -40 81 -148 190 -259 262 -94 62 -157
97 -105 58z"/>
<path d="M5800 4184 c0 -7 133 -532 190 -749 45 -171 180 -699 180 -703 0 -6
65 5 111 18 35 10 36 12 29 43 -4 17 -33 131 -65 252 -31 121 -87 339 -125
485 -37 146 -89 348 -115 450 -26 102 -50 188 -54 191 -9 10 -151 22 -151 13z"/>
<path d="M10910 4184 c-458 -30 -548 -38 -575 -50 -19 -9 -56 -13 -95 -12 -58
3 -65 1 -68 -17 -3 -20 3 -20 355 -20 284 0 388 -4 503 -18 276 -34 445 -78
595 -155 196 -100 282 -247 240 -407 -58 -218 -296 -452 -720 -707 -346 -208
-703 -378 -1205 -574 -91 -36 -174 -69 -185 -74 -11 -5 -54 -20 -96 -34 -42
-14 -127 -44 -188 -66 -366 -131 -1056 -329 -1501 -430 -169 -39 -187 -45
-211 -73 -23 -26 -30 -29 -63 -23 -20 4 -34 11 -31 17 8 12 -11 11 -57 -2 -43
-11 -48 -27 -17 -55 36 -33 42 -53 24 -80 -20 -31 -38 -23 -25 11 7 20 4 30
-15 54 -14 16 -25 34 -25 40 0 15 -28 14 -108 -4 -78 -17 -344 -65 -517 -94
-646 -106 -1319 -157 -1762 -132 -126 7 -249 15 -275 18 -41 4 -46 3 -44 -14
2 -10 -7 -41 -19 -69 l-23 -52 37 -6 c117 -18 435 -28 721 -23 523 10 1030 59
1683 163 91 14 107 20 107 35 0 10 13 25 29 34 16 8 32 24 36 34 14 44 60 35
118 -23 l25 -25 103 19 c527 97 1229 264 1664 395 44 13 157 47 250 74 180 53
517 162 650 211 343 124 650 245 900 353 238 102 659 313 737 368 14 11 52 33
83 49 30 16 108 64 173 106 421 277 652 543 652 750 0 253 -342 429 -960 494
-101 11 -787 21 -900 14z"/>
<path d="M6020 4161 c0 -7 38 -159 85 -339 46 -180 113 -442 150 -582 36 -140
77 -302 92 -359 l27 -103 32 5 c38 6 30 32 73 -228 39 -229 47 -275 53 -281 3
-2 59 7 124 21 66 14 123 25 128 25 20 0 -28 745 -99 1520 -14 151 -27 280
-29 286 -3 7 -64 13 -168 18 -89 4 -178 9 -195 12 -32 6 -33 5 -33 -27 1 -19
16 -151 34 -294 19 -143 32 -262 31 -264 -4 -4 -4 -3 -85 320 -34 136 -66 252
-70 259 -11 17 -150 27 -150 11z"/>
<path d="M10055 4112 c-84 -8 -660 -94 -665 -99 -3 -3 15 -3 40 1 119 16 313
36 469 48 94 7 176 15 182 19 22 13 4 34 -26 31z"/>
<path d="M7325 4088 c-7 -21 -34 -450 -46 -748 -12 -288 -7 -660 11 -744 19
-92 44 -95 83 -8 68 152 186 729 290 1420 l13 92 -173 0 c-130 0 -175 -3 -178
-12z"/>
<path d="M7966 3723 c-33 -203 -65 -406 -72 -453 -7 -47 -29 -185 -49 -307
-37 -236 -36 -265 7 -279 22 -7 64 18 72 43 3 10 28 162 56 338 28 176 57 361
65 410 41 252 84 525 90 568 l7 47 -59 0 -59 0 -58 -367z"/>
<path d="M8301 3437 c-147 -9 -181 -18 -181 -45 0 -17 13 -18 198 -19 353 0
512 -58 512 -183 0 -129 -222 -308 -620 -502 -498 -242 -1227 -460 -1845 -553
-268 -40 -381 -48 -613 -42 -198 4 -224 7 -297 31 -139 44 -185 105 -154 199
34 105 266 280 577 434 96 47 172 91 172 99 0 17 -1 16 -171 -61 -232 -105
-468 -248 -595 -360 -98 -86 -154 -187 -138 -249 16 -63 109 -122 241 -152 95
-22 436 -30 616 -15 1036 88 2422 547 2947 976 236 193 224 350 -33 416 -146
37 -321 45 -616 26z"/>
<path d="M4127 2050 c-143 -152 -209 -275 -211 -395 -1 -112 49 -198 162 -276
l42 -30 0 30 c0 17 10 60 21 95 l21 65 -37 45 c-71 87 -91 187 -59 297 16 57
82 176 109 199 16 14 39 50 31 50 -2 0 -38 -36 -79 -80z"/>
<path d="M4242 1467 c-21 -151 -16 -170 43 -193 43 -16 75 -12 46 6 -8 4 -12
17 -8 29 3 12 0 21 -5 21 -7 0 -9 20 -5 54 5 49 3 56 -16 69 -34 21 -54 26
-55 14z"/>
<path d="M3247 893 c1789 -2 4717 -2 6505 0 1789 1 326 2 -3252 2 -3578 0
-5041 -1 -3253 -2z"/>
<path d="M990 685 c0 -71 1 -75 23 -76 77 -4 107 19 107 81 0 50 -24 70 -83
70 l-47 0 0 -75z"/>
<path d="M990 410 l0 -80 45 0 c59 0 95 32 95 84 0 51 -31 76 -92 76 l-48 0 0
-80z"/>
</g>
</svg>
