<?xml version="1.0" standalone="no"?>
<!DOCTYPE svg PUBLIC "-//W3C//DTD SVG 20010904//EN"
 "http://www.w3.org/TR/2001/REC-SVG-20010904/DTD/svg10.dtd">
<svg version="1.0" xmlns="http://www.w3.org/2000/svg"
 width="1300.000000pt" height="909.000000pt" viewBox="0 0 1300.000000 909.000000"
 preserveAspectRatio="xMidYMid meet">

<g transform="translate(0.000000,909.000000) scale(0.100000,-0.100000)"
fill="#000000" stroke="none">
<path d="M5840 8848 c0 -4 8 -29 19 -55 10 -26 31 -97 47 -158 25 -98 28 -127
28 -265 -1 -138 -4 -164 -27 -243 -15 -48 -45 -122 -66 -165 -21 -42 -46 -102
-55 -131 -20 -69 -21 -205 0 -291 21 -90 92 -231 162 -320 l58 -75 50 2 c27 1
77 4 111 8 l62 6 15 52 c20 71 43 194 57 302 16 126 6 413 -20 536 -40 195
-125 403 -231 561 -48 71 -208 252 -210 236z"/>
<path d="M7790 8178 c0 -24 -5 -112 -10 -197 -5 -85 -8 -156 -6 -158 2 -2 26
-6 52 -8 27 -3 65 -7 84 -10 19 -2 58 -7 87 -10 l52 -6 6 38 c4 21 13 72 20
113 23 123 39 240 33 245 -3 3 -22 6 -44 8 l-39 2 -17 -95 -16 -95 0 99 1 100
-29 3 c-16 1 -43 5 -61 7 -35 5 -32 10 -46 -84 -3 -15 -5 -8 -6 17 -2 58 -9
73 -37 73 -22 0 -24 -4 -24 -42z"/>
<path d="M7770 7767 c-18 -86 -66 -393 -63 -397 10 -11 308 -37 315 -27 4 8
18 231 23 382 0 6 -36 15 -80 21 -87 12 -195 24 -195 21z"/>
<path d="M8424 7658 c-55 -62 -142 -238 -203 -412 -69 -194 -64 -401 13 -526
9 -14 21 -45 27 -70 9 -35 25 -58 75 -107 62 -58 64 -63 59 -100 -9 -72 -185
-1198 -190 -1220 -5 -22 -2 -23 55 -23 33 0 60 2 60 5 0 2 14 89 30 192 60
368 70 430 100 623 17 107 40 251 51 319 29 177 19 211 -84 294 -26 21 -47 45
-47 52 0 8 14 29 31 47 39 42 80 123 109 213 34 107 38 289 11 478 -22 150
-47 248 -67 254 -5 2 -19 -7 -30 -19z"/>
<path d="M7686 7293 c-5 -19 -58 -377 -100 -688 -61 -447 -166 -1366 -157
-1376 6 -7 382 -41 388 -36 13 14 122 1082 168 1656 29 361 31 431 12 431 -7
0 -67 7 -132 15 -155 19 -172 19 -179 -2z"/>
<path d="M6111 7097 l-94 -10 7 -206 c7 -213 25 -554 30 -558 1 -2 73 4 159
14 139 14 157 18 157 34 0 34 -104 625 -127 717 -3 12 -12 21 -22 20 -9 0 -58
-6 -110 -11z"/>
<path d="M6885 6820 c-58 -19 -65 -39 -65 -202 0 -143 1 -148 20 -148 19 0 21
-5 18 -67 l-3 -67 -95 -43 -95 -42 -3 -459 -2 -459 42 -6 c24 -4 133 -20 243
-36 110 -16 228 -32 263 -36 l62 -7 -1 299 c-1 164 -5 390 -8 502 l-6 205 -95
40 -95 41 -3 66 c-3 60 -1 67 18 72 19 5 20 13 20 131 0 130 -10 177 -43 205
-21 17 -131 24 -172 11z"/>
<path d="M5339 6650 c0 -14 -2 -38 -3 -55 -2 -16 -6 -147 -11 -290 l-7 -260
52 -202 53 -201 61 -23 c79 -31 106 -38 106 -32 0 3 -18 73 -40 157 -77 297
-90 348 -90 361 0 17 37 26 48 11 5 -6 39 -130 77 -276 37 -146 72 -270 79
-277 12 -12 147 -56 153 -49 2 2 -16 82 -41 177 -25 96 -61 236 -80 312 -24
95 -46 155 -70 195 -19 31 -61 102 -95 157 -33 55 -79 132 -101 170 -89 152
-90 153 -91 125z"/>
<path d="M2920 6593 c-1182 -42 -2090 -204 -2467 -439 -89 -55 -171 -135 -198
-190 -40 -83 -27 -196 31 -275 214 -292 775 -554 1781 -833 331 -92 951 -227
1378 -301 83 -14 202 -35 265 -46 63 -11 158 -26 210 -34 52 -8 176 -26 275
-40 143 -22 186 -25 211 -16 41 15 49 14 34 -4 -11 -13 -8 -15 16 -15 22 0 26
3 14 10 -8 5 -11 10 -7 10 4 0 18 -7 30 -15 57 -37 1117 -145 1872 -190 502
-30 1013 -45 870 -25 -31 4 -39 7 -21 8 28 2 28 3 13 20 -10 10 -17 22 -17 27
0 5 9 -1 20 -13 23 -25 36 -28 43 -9 4 8 6 7 6 -4 2 -33 48 -44 185 -43 195 1
191 0 189 52 -1 7 1 11 5 8 8 -9 33 45 26 56 -4 6 -10 5 -15 -3 -7 -11 -9 -10
-9 4 0 20 11 22 28 5 9 -9 12 -9 12 0 0 7 -6 12 -12 12 -9 0 -8 4 2 11 13 10
13 10 -1 6 -8 -3 -35 -1 -60 3 -26 5 -46 4 -50 -1 -3 -6 -10 -9 -15 -8 -5 1
-16 1 -24 0 -13 -1 -13 -2 0 -11 12 -8 10 -10 -9 -10 -13 0 -21 3 -18 7 4 3 2
12 -4 20 -16 19 -119 18 -119 -1 0 -8 -6 -16 -12 -19 -10 -4 -10 -7 0 -18 15
-16 16 -29 2 -29 -5 0 -9 6 -7 13 1 6 -4 11 -11 9 -8 -1 -11 2 -7 8 3 5 1 10
-5 10 -6 0 -4 8 6 18 17 16 15 17 -47 24 -38 4 -68 3 -73 -2 -6 -6 -19 -10
-31 -11 -11 0 -14 -3 -7 -6 6 -2 10 -9 6 -14 -3 -5 3 -9 14 -9 10 0 24 -11 30
-25 16 -35 15 -44 -3 -18 -15 21 -51 36 -58 24 -2 -3 -2 -1 -1 6 2 7 -1 15 -7
18 -5 4 -7 10 -4 15 13 20 -34 29 -220 39 -666 39 -1235 94 -1910 187 -143 19
-273 33 -288 30 -16 -3 -26 -2 -22 4 6 10 -78 25 -99 17 -7 -3 -18 -1 -23 4
-5 5 -101 25 -214 44 -205 35 -572 106 -749 145 -52 12 -124 28 -160 35 -631
137 -1321 366 -1688 560 -245 130 -422 286 -461 407 -78 239 185 453 719 588
125 31 354 79 410 86 19 2 64 8 100 14 218 33 527 63 830 80 107 5 233 12 280
15 47 2 254 5 460 7 303 1 345 3 220 8 -146 7 -1277 9 -1440 3z m4595 -2333
c-3 -5 -14 -10 -23 -9 -14 0 -13 2 3 9 27 11 27 11 20 0z"/>
<path d="M9004 6545 c-25 -17 -35 -40 -69 -159 -30 -104 -29 -96 -9 -96 10 0
14 -6 10 -17 -3 -10 -10 -36 -15 -59 l-11 -40 -87 -12 c-47 -6 -90 -15 -94
-19 -4 -5 -67 -217 -139 -473 -73 -255 -135 -471 -138 -478 -4 -12 16 -13 129
-8 136 7 400 34 408 41 5 6 221 766 221 780 0 6 -21 27 -47 47 -27 20 -57 47
-69 60 -20 22 -20 26 -7 71 10 32 19 47 31 47 13 0 24 23 45 99 44 158 37 184
-52 216 -54 19 -81 19 -107 0z"/>
<path d="M6218 6281 c-81 -9 -151 -20 -155 -24 -9 -10 50 -813 61 -824 9 -10
385 -87 391 -81 6 7 -118 887 -131 931 -3 9 -8 16 -12 16 -4 -1 -73 -9 -154
-18z"/>
<path d="M5173 6175 c0 -8 4 -15 9 -15 4 0 8 7 8 15 0 8 -4 15 -8 15 -5 0 -9
-7 -9 -15z"/>
<path d="M5015 6172 c27 -4 28 -5 10 -13 -12 -5 1 -6 35 -2 81 8 79 18 -3 19
-40 0 -58 -2 -42 -4z"/>
<path d="M4865 6160 c-12 -5 4 -6 40 -3 33 3 62 7 64 9 9 8 -85 2 -104 -6z"/>
<path d="M5144 6161 c-5 -5 -22 -11 -39 -14 l-30 -4 30 -1 c30 -2 64 12 54 22
-3 3 -10 2 -15 -3z"/>
<path d="M4775 6140 c-3 -6 1 -7 9 -4 18 7 21 14 7 14 -6 0 -13 -4 -16 -10z"/>
<path d="M4948 6143 c7 -3 16 -2 19 1 4 3 -2 6 -13 5 -11 0 -14 -3 -6 -6z"/>
<path d="M5012 6130 c10 -6 25 -7 40 -1 20 9 18 10 -17 10 -31 0 -36 -2 -23
-9z"/>
<path d="M4876 6118 c3 -4 -10 -12 -28 -17 -18 -5 -25 -10 -15 -10 9 -1 17 -6
17 -11 0 -7 7 -7 20 0 11 6 18 15 15 19 -2 5 17 7 43 5 26 -2 38 -1 28 2 -15
5 -16 8 -5 15 9 6 10 9 2 9 -6 0 -15 -4 -18 -10 -3 -5 -13 -10 -21 -10 -8 0
-13 4 -10 8 2 4 -4 8 -14 8 -10 0 -16 -4 -14 -8z"/>
<path d="M4650 6110 c0 -5 5 -10 10 -10 6 0 10 -5 10 -11 0 -6 -7 -9 -15 -5
-8 3 -15 1 -15 -5 0 -5 -12 -7 -27 -4 -23 4 -25 4 -8 -4 17 -8 18 -10 3 -10
-10 -1 -18 -5 -18 -11 0 -5 19 0 43 10 23 10 42 24 41 30 -2 25 -5 30 -14 30
-5 0 -10 -4 -10 -10z"/>
<path d="M4618 6103 c7 -3 16 -2 19 1 4 3 -2 6 -13 5 -11 0 -14 -3 -6 -6z"/>
<path d="M5045 6085 c-240 -56 -358 -136 -340 -231 13 -73 124 -164 300 -249
88 -42 306 -125 395 -150 25 -7 101 -30 170 -50 425 -123 1115 -246 1675 -300
88 -8 180 -17 205 -20 312 -35 1092 -46 1400 -20 285 24 517 70 637 127 26 12
66 41 90 63 38 37 43 47 43 87 0 80 -82 154 -281 254 -50 25 -92 44 -94 42 -1
-2 -5 -13 -9 -24 -5 -18 1 -26 36 -47 111 -65 168 -130 168 -190 0 -117 -226
-202 -645 -243 -198 -19 -745 -22 -995 -6 -765 52 -1477 165 -1995 318 -88 26
-172 48 -187 48 -14 1 -24 4 -22 7 2 4 -31 19 -74 34 -135 48 -333 150 -391
201 -53 47 -81 94 -81 134 0 28 61 93 107 114 l38 17 -3 54 c-5 65 0 65 -147
30z"/>
<path d="M4495 6070 c-18 -7 -17 -8 10 -14 58 -13 65 -14 60 -6 -3 5 1 11 7
13 7 3 -5 3 -27 1 -30 -3 -35 -2 -20 5 25 12 -1 13 -30 1z"/>
<path d="M4690 6060 c-9 -6 -10 -10 -3 -10 6 0 15 5 18 10 8 12 4 12 -15 0z"/>
<path d="M4433 6048 c-13 -6 -23 -15 -23 -20 0 -13 10 -10 37 12 28 22 21 25
-14 8z"/>
<path d="M4795 6050 c-3 -6 1 -7 9 -4 18 7 21 14 7 14 -6 0 -13 -4 -16 -10z"/>
<path d="M4724 6042 c3 -5 -9 -13 -27 -17 -27 -7 -29 -9 -10 -12 22 -4 22 -5
6 -30 -16 -24 -17 -24 -30 -7 -11 15 -13 16 -13 2 0 -9 6 -18 13 -21 9 -3 7
-10 -6 -25 -11 -11 -16 -25 -13 -31 3 -5 1 -12 -4 -14 -6 -3 -5 -4 2 -3 7 2
13 7 13 12 1 15 25 54 53 86 15 17 26 35 24 40 -2 6 3 8 11 5 8 -3 20 -1 28 5
12 8 12 9 -1 5 -8 -2 -23 0 -34 5 -12 7 -16 7 -12 0z"/>
<path d="M4443 6016 c-16 -19 -4 -29 13 -11 8 7 14 16 14 19 0 10 -15 6 -27
-8z"/>
<path d="M4351 5997 c-8 -11 -6 -18 9 -32 18 -17 20 -17 14 -2 -3 9 -11 17
-17 17 -6 0 -2 7 9 15 10 8 14 15 8 15 -6 0 -17 -6 -23 -13z"/>
<path d="M4512 5945 c-7 -8 -9 -15 -4 -15 5 0 15 7 22 15 16 19 -1 19 -18 0z"/>
<path d="M4288 5902 c-4 -13 -4 -21 -1 -18 3 3 11 -1 17 -10 10 -13 12 -13 12
5 0 11 -3 18 -7 15 -4 -2 -9 4 -11 13 -3 14 -5 13 -10 -5z"/>
<path d="M4575 5860 c3 -5 8 -10 11 -10 2 0 4 5 4 10 0 6 -5 10 -11 10 -5 0
-7 -4 -4 -10z"/>
<path d="M4400 5851 c0 -6 4 -13 10 -16 6 -3 7 1 4 9 -7 18 -14 21 -14 7z"/>
<path d="M4651 5837 c-1 -19 -5 -26 -13 -21 -7 4 -8 3 -4 -5 4 -6 12 -9 17 -6
5 3 6 -1 3 -9 -3 -9 1 -22 9 -30 12 -13 16 -13 20 -2 3 7 2 17 -3 22 -5 5 -13
25 -18 44 -10 33 -10 34 -11 7z"/>
<path d="M4572 5808 c7 -15 15 -23 17 -17 2 6 -4 18 -13 27 -15 15 -15 15 -4
-10z"/>
<path d="M4440 5790 c0 -6 7 -10 15 -10 8 0 15 2 15 4 0 2 -7 6 -15 10 -8 3
-15 1 -15 -4z"/>
<path d="M4340 5781 c0 -5 5 -13 10 -16 6 -3 10 -2 10 4 0 5 -4 13 -10 16 -5
3 -10 2 -10 -4z"/>
<path d="M4640 5751 c0 -6 4 -13 10 -16 6 -3 7 1 4 9 -7 18 -14 21 -14 7z"/>
<path d="M4739 5711 c30 -28 59 -51 65 -51 6 0 -2 11 -19 25 -16 14 -39 33
-50 43 -48 44 -45 29 4 -17z"/>
<path d="M4380 5743 c0 -6 8 -17 18 -24 16 -13 16 -13 2 6 -8 11 -16 22 -17
24 -2 2 -3 0 -3 -6z"/>
<path d="M4457 5709 c-9 -5 -22 -7 -27 -4 -24 15 -7 -4 18 -21 26 -17 27 -17
12 1 -13 17 -13 18 1 13 10 -4 16 -1 16 8 0 8 -1 14 -1 14 -1 0 -9 -5 -19 -11z"/>
<path d="M9260 5681 c0 -8 41 -23 47 -17 2 1 -8 8 -22 14 -14 6 -25 8 -25 3z"/>
<path d="M4510 5657 c0 -7 30 -27 66 -45 36 -18 63 -29 60 -24 -3 5 -19 15
-36 22 -16 7 -30 17 -30 22 0 5 -4 7 -10 3 -5 -3 -18 3 -30 15 -12 12 -20 15
-20 7z"/>
<path d="M9320 5655 c0 -8 93 -52 125 -59 l30 -7 -29 20 c-17 11 -34 18 -38
15 -5 -3 -25 4 -44 15 -36 22 -44 24 -44 16z"/>
<path d="M4605 5640 c27 -12 43 -12 25 0 -8 5 -22 9 -30 9 -10 0 -8 -3 5 -9z"/>
<path d="M4840 5635 c7 -8 17 -15 22 -15 6 0 5 7 -2 15 -7 8 -17 15 -22 15 -6
0 -5 -7 2 -15z"/>
<path d="M4765 5610 c3 -5 8 -10 11 -10 2 0 4 5 4 10 0 6 -5 10 -11 10 -5 0
-7 -4 -4 -10z"/>
<path d="M4820 5616 c0 -2 7 -9 15 -16 13 -11 14 -10 9 4 -5 14 -24 23 -24 12z"/>
<path d="M4902 5601 c-11 -6 -10 -10 4 -15 9 -4 22 -2 28 4 8 8 6 9 -8 4 -13
-5 -17 -4 -12 4 8 14 6 15 -12 3z"/>
<path d="M4795 5590 c3 -5 8 -10 11 -10 2 0 4 5 4 10 0 6 -5 10 -11 10 -5 0
-7 -4 -4 -10z"/>
<path d="M4957 5574 c3 -7 9 -14 14 -14 14 0 10 17 -5 23 -10 4 -13 1 -9 -9z"/>
<path d="M9470 5579 c-12 -8 -10 -9 7 -4 12 3 24 1 28 -5 3 -5 1 -10 -6 -10
-6 0 6 -12 27 -26 21 -14 50 -36 63 -48 l24 -21 -19 30 c-18 28 -18 29 -1 22
10 -4 21 -7 23 -7 3 0 3 -4 -1 -9 -3 -5 0 -13 6 -17 8 -5 9 -3 4 6 -5 8 -3 11
6 8 8 -3 13 -10 12 -16 -1 -5 7 -8 17 -5 11 3 20 0 20 -6 0 -6 5 -11 11 -11
21 0 -2 18 -83 64 -132 76 -117 70 -138 55z m90 -39 c33 -26 14 -26 -25 0 -16
11 -23 20 -15 20 8 0 26 -9 40 -20z"/>
<path d="M4740 5565 c0 -2 13 -7 28 -13 21 -7 29 -7 29 2 0 6 -13 11 -29 12
-15 1 -28 0 -28 -1z"/>
<path d="M4691 5557 c13 -15 169 -65 158 -51 -6 8 -19 14 -29 14 -10 0 -33 6
-51 14 -45 18 -85 30 -78 23z"/>
<path d="M4990 5549 c0 -5 9 -9 20 -9 11 0 20 2 20 4 0 2 -9 6 -20 9 -11 3
-20 1 -20 -4z"/>
<path d="M4835 5540 c3 -5 11 -10 16 -10 6 0 7 5 4 10 -3 6 -11 10 -16 10 -6
0 -7 -4 -4 -10z"/>
<path d="M5058 5530 c12 -12 28 -20 35 -17 7 2 -4 12 -23 22 l-35 17 23 -22z"/>
<path d="M4960 5530 c0 -5 5 -10 10 -10 6 0 10 5 10 10 0 6 -4 10 -10 10 -5 0
-10 -4 -10 -10z"/>
<path d="M5085 5503 c-37 -9 -43 -26 -7 -19 21 3 31 2 27 -4 -3 -6 -2 -10 3
-10 5 0 12 9 15 20 5 20 0 22 -38 13z"/>
<path d="M4900 5481 c0 -10 30 -24 37 -17 3 2 -5 9 -16 16 -12 6 -21 7 -21 1z"/>
<path d="M5008 5483 c7 -3 16 -2 19 1 4 3 -2 6 -13 5 -11 0 -14 -3 -6 -6z"/>
<path d="M5202 5474 c9 -9 21 -15 27 -13 6 2 -2 10 -17 17 -25 11 -25 11 -10
-4z"/>
<path d="M9666 5445 c3 -8 10 -12 15 -9 5 3 9 0 9 -5 0 -6 5 -11 11 -11 14 0
2 18 -21 30 -16 8 -18 8 -14 -5z"/>
<path d="M5000 5446 c0 -2 7 -7 16 -10 8 -3 12 -2 9 4 -6 10 -25 14 -25 6z"/>
<path d="M5270 5440 c12 -8 12 -10 1 -10 -8 0 -11 -3 -8 -6 4 -4 12 -2 20 4
14 12 60 5 52 -8 -3 -5 5 -6 17 -2 20 5 19 7 -12 18 -44 16 -92 18 -70 4z"/>
<path d="M5056 5425 c10 -8 26 -14 34 -14 11 0 10 3 -4 14 -11 8 -27 15 -35
15 -11 0 -10 -4 5 -15z"/>
<path d="M5107 5421 c2 -10 20 -23 41 -29 47 -15 54 -8 8 8 -20 6 -36 18 -36
26 0 8 -4 14 -9 14 -5 0 -7 -8 -4 -19z"/>
<path d="M9646 5426 c3 -8 12 -17 20 -20 11 -4 12 -2 1 14 -14 23 -29 27 -21
6z"/>
<path d="M5225 5410 c3 -5 13 -10 21 -10 8 0 12 5 9 10 -3 6 -13 10 -21 10 -8
0 -12 -4 -9 -10z"/>
<path d="M9715 5411 c-3 -5 -1 -12 5 -16 5 -3 10 1 10 9 0 18 -6 21 -15 7z"/>
<path d="M5190 5400 c8 -5 20 -10 25 -10 6 0 3 5 -5 10 -8 5 -19 10 -25 10 -5
0 -3 -5 5 -10z"/>
<path d="M5380 5395 c19 -19 62 -24 67 -7 3 7 -1 10 -11 6 -9 -3 -16 -1 -16 5
0 6 -12 11 -27 11 -24 0 -26 -2 -13 -15z"/>
<path d="M9771 5400 c0 -8 4 -22 9 -30 12 -18 12 -2 0 25 -6 13 -9 15 -9 5z"/>
<path d="M5248 5379 c13 -5 29 -6 35 -2 7 4 5 -2 -3 -13 -11 -15 -11 -16 0 -6
8 6 23 12 35 13 20 0 20 0 0 9 -11 5 -36 9 -55 9 -32 0 -33 -1 -12 -10z"/>
<path d="M10775 5369 c118 -87 215 -232 215 -320 0 -26 4 -49 10 -51 5 -1 7
-14 3 -26 -4 -18 -8 -21 -15 -10 -7 9 -8 7 -5 -10 3 -12 1 -20 -3 -17 -12 7
-44 -61 -35 -74 3 -6 0 -9 -8 -6 -18 8 -51 -30 -43 -50 4 -12 1 -15 -13 -10
-11 3 -28 -2 -42 -14 -20 -16 -21 -21 -10 -35 8 -9 9 -16 3 -16 -6 0 -12 5
-14 12 -3 9 -12 9 -36 -1 -38 -16 -39 -21 -11 -44 11 -10 18 -21 15 -24 -3 -4
-17 4 -30 16 l-25 23 -35 -22 c-20 -12 -36 -29 -36 -38 0 -14 -2 -14 -9 -3 -7
11 -20 9 -72 -12 -365 -146 -903 -238 -1674 -287 -88 -6 -359 -13 -602 -17
-244 -3 -443 -10 -443 -15 0 -4 -11 -8 -25 -8 -14 0 -25 5 -25 10 0 6 -24 10
-52 10 -38 0 -49 -3 -38 -10 8 -5 10 -10 4 -10 -17 0 -34 -50 -33 -98 l1 -42
49 1 c42 2 49 5 44 20 -3 9 -1 20 5 24 6 4 10 3 9 -2 -1 -4 -1 -17 0 -27 1
-19 11 -19 344 -12 850 16 1517 79 2062 193 94 19 182 41 196 49 15 7 29 10
33 7 3 -4 6 -1 6 6 0 7 6 11 14 8 19 -7 127 23 121 33 -3 5 3 6 13 3 20 -5
185 58 285 109 261 131 353 293 266 467 -40 81 -148 190 -259 262 -94 62 -157
97 -105 58z m-165 -749 c0 -5 -2 -10 -4 -10 -3 0 -8 5 -11 10 -3 6 -1 10 4 10
6 0 11 -4 11 -10z m130 -59 c0 -5 -7 -12 -16 -15 -14 -5 -15 -4 -4 9 14 17 20
19 20 6z m-2900 -277 c0 -8 -5 -12 -10 -9 -6 4 -8 11 -5 16 9 14 15 11 15 -7z"/>
<path d="M5498 5368 c9 -9 15 -9 24 0 9 9 7 12 -12 12 -19 0 -21 -3 -12 -12z"/>
<path d="M9671 5364 c0 -11 3 -14 6 -6 3 7 2 16 -1 19 -3 4 -6 -2 -5 -13z"/>
<path d="M9715 5344 c2 -33 15 -43 15 -11 0 14 -4 28 -8 31 -4 2 -7 -6 -7 -20z"/>
<path d="M9761 5354 c0 -11 3 -14 6 -6 3 7 2 16 -1 19 -3 4 -6 -2 -5 -13z"/>
<path d="M5325 5350 c-8 -13 5 -13 25 0 13 8 13 10 -2 10 -9 0 -20 -4 -23 -10z"/>
<path d="M5460 5350 c-13 -8 -13 -10 2 -10 9 0 20 5 23 10 8 13 -5 13 -25 0z"/>
<path d="M5560 5351 l-25 -7 29 -8 c15 -4 31 -5 34 -1 3 3 -1 5 -9 5 -11 0
-11 2 1 10 17 11 7 11 -30 1z"/>
<path d="M5618 5333 c7 -3 16 -2 19 1 4 3 -2 6 -13 5 -11 0 -14 -3 -6 -6z"/>
<path d="M5691 5326 c11 -12 69 -25 69 -15 0 5 -9 9 -19 9 -11 0 -28 3 -38 7
-10 3 -15 3 -12 -1z"/>
<path d="M9810 5316 c0 -8 4 -17 9 -20 5 -4 7 3 4 14 -6 23 -13 26 -13 6z"/>
<path d="M5438 5313 c6 -2 18 -2 25 0 6 3 1 5 -13 5 -14 0 -19 -2 -12 -5z"/>
<path d="M5607 5303 c9 -7 24 -12 32 -12 10 1 9 3 -4 7 l-20 5 20 8 c15 6 12
7 -13 6 -28 -2 -30 -4 -15 -14z"/>
<path d="M5495 5302 c11 -5 40 -12 65 -15 28 -4 37 -3 25 2 -11 5 -40 11 -65
15 -28 4 -38 3 -25 -2z"/>
<path d="M5780 5300 c0 -5 -16 -10 -37 -10 -91 0 -1 -14 161 -25 62 -4 100
-23 85 -42 -8 -9 -8 -13 0 -13 6 0 11 4 11 9 0 5 12 14 28 20 l27 11 -27 -5
c-16 -3 -28 -1 -28 4 0 9 -90 32 -140 36 -14 1 -35 7 -47 13 -27 15 -33 15
-33 2z m27 -16 c-3 -3 -12 -4 -19 -1 -8 3 -5 6 6 6 11 1 17 -2 13 -5z"/>
<path d="M5645 5270 c-25 -11 1 -11 35 0 20 6 21 8 5 8 -11 0 -29 -3 -40 -8z"/>
<path d="M9761 5268 c-1 -9 -5 -18 -10 -20 -5 -1 -3 -8 4 -15 17 -16 26 3 14
32 -6 16 -8 16 -8 3z"/>
<path d="M5738 5263 c7 -3 16 -2 19 1 4 3 -2 6 -13 5 -11 0 -14 -3 -6 -6z"/>
<path d="M9626 5233 c-18 -24 -9 -32 12 -11 10 10 15 10 21 -1 5 -7 11 -9 13
-5 3 5 -3 16 -12 25 -15 14 -18 13 -34 -8z"/>
<path d="M5790 5236 c0 -9 50 -12 62 -5 8 6 -1 9 -24 9 -21 0 -38 -2 -38 -4z"/>
<path d="M6068 5233 c7 -3 16 -2 19 1 4 3 -2 6 -13 5 -11 0 -14 -3 -6 -6z"/>
<path d="M9776 5212 l-19 -27 24 22 c12 12 21 24 18 27 -2 2 -13 -8 -23 -22z"/>
<path d="M5878 5223 c6 -2 18 -2 25 0 6 3 1 5 -13 5 -14 0 -19 -2 -12 -5z"/>
<path d="M6120 5220 c14 -4 34 -8 45 -8 16 0 15 2 -5 8 -14 4 -34 8 -45 8 -16
0 -15 -2 5 -8z"/>
<path d="M6028 5213 c6 -2 18 -2 25 0 6 3 1 5 -13 5 -14 0 -19 -2 -12 -5z"/>
<path d="M5950 5201 c71 -17 104 -21 95 -12 -6 5 -37 11 -70 14 -43 4 -50 4
-25 -2z"/>
<path d="M6096 5199 c2 -4 -2 -9 -8 -12 -16 -5 59 -27 87 -26 17 1 17 2 3 6
-31 8 -20 21 25 31 38 7 34 8 -35 8 -42 0 -74 -4 -72 -7z m51 -15 c-3 -3 -12
-4 -19 -1 -8 3 -5 6 6 6 11 1 17 -2 13 -5z"/>
<path d="M9541 5178 c-30 -17 -70 -38 -90 -45 -31 -12 -32 -13 -6 -8 17 4 40
7 52 8 11 1 19 5 17 9 -4 6 57 48 70 48 4 0 4 -6 0 -12 -4 -7 -3 -9 1 -5 7 6
17 38 12 37 -1 0 -26 -15 -56 -32z"/>
<path d="M6270 5196 c0 -2 11 -6 25 -8 14 -3 25 -1 25 3 0 5 -11 9 -25 9 -14
0 -25 -2 -25 -4z"/>
<path d="M6240 5187 c0 -3 15 -10 32 -16 18 -6 28 -7 23 -2 -12 10 -55 25 -55
18z"/>
<path d="M6405 5171 c3 -6 23 -11 43 -11 24 0 32 -3 24 -9 -11 -7 -10 -9 3
-14 9 -4 13 -3 10 3 -3 6 0 10 7 10 23 1 -14 17 -55 24 -27 5 -37 4 -32 -3z"/>
<path d="M9705 5172 c-16 -12 -16 -32 0 -26 8 4 13 10 10 14 -3 5 1 11 7 13 7
3 9 6 3 6 -5 0 -14 -3 -20 -7z"/>
<path d="M6220 5160 c-23 -7 -23 -8 -3 -9 12 -1 25 4 28 9 3 6 5 10 3 9 -2 -1
-14 -5 -28 -9z"/>
<path d="M9650 5157 c14 -8 27 -12 30 -10 7 6 -23 23 -40 23 -8 0 -4 -6 10
-13z"/>
<path d="M6365 5150 c4 -6 -5 -10 -21 -10 -15 0 -25 -3 -21 -6 9 -9 77 5 77
16 0 6 -9 10 -21 10 -11 0 -17 -4 -14 -10z"/>
<path d="M6555 5141 c17 -5 51 -9 78 -10 26 0 47 -5 47 -11 0 -5 5 -10 10 -10
17 0 11 18 -7 24 -10 2 -49 7 -88 10 -46 3 -60 2 -40 -3z"/>
<path d="M9583 5126 c-13 -6 -23 -17 -23 -25 0 -11 3 -11 15 -1 8 6 18 9 22 7
5 -3 9 3 9 14 0 10 0 18 -1 18 0 -1 -10 -6 -22 -13z"/>
<path d="M9634 5124 c-18 -14 -18 -15 4 -4 12 6 22 13 22 15 0 8 -5 6 -26 -11z"/>
<path d="M6398 5123 c12 -2 30 -2 40 0 9 3 -1 5 -23 4 -22 0 -30 -2 -17 -4z"/>
<path d="M6500 5116 c0 -2 14 -6 30 -8 17 -3 30 -1 30 4 0 4 -13 8 -30 8 -16
0 -30 -2 -30 -4z"/>
<path d="M6585 5110 c-18 -7 -17 -8 10 -15 17 -4 36 -8 43 -11 7 -2 10 1 7 6
-3 6 2 10 12 11 16 0 16 1 -2 9 -25 11 -44 11 -70 0z m48 -7 c-7 -2 -19 -2
-25 0 -7 3 -2 5 12 5 14 0 19 -2 13 -5z"/>
<path d="M6800 5109 c0 -5 11 -9 25 -9 14 0 25 2 25 4 0 2 -11 6 -25 8 -14 3
-25 1 -25 -3z"/>
<path d="M9365 5110 c-13 -6 -15 -9 -5 -9 8 0 22 4 30 9 18 12 2 12 -25 0z"/>
<path d="M9478 5113 c7 -3 16 -2 19 1 4 3 -2 6 -13 5 -11 0 -14 -3 -6 -6z"/>
<path d="M9393 5095 c-15 -11 -28 -13 -46 -6 -14 6 -29 6 -38 0 -8 -5 -28 -9
-46 -9 -17 0 -35 -5 -39 -12 -5 -8 0 -9 14 -6 12 4 25 2 28 -3 3 -5 15 -9 27
-8 21 0 21 1 3 8 -18 7 -18 8 5 14 35 10 67 9 51 -1 -9 -6 -5 -12 13 -20 35
-16 46 -15 16 2 -24 13 -24 14 -4 20 12 4 27 13 33 21 16 19 10 19 -17 0z"/>
<path d="M9430 5095 c-7 -8 -9 -15 -6 -15 4 0 14 7 22 15 9 8 11 15 6 15 -5 0
-15 -7 -22 -15z"/>
<path d="M9490 5100 c-23 -8 -22 -8 8 -7 17 1 32 5 32 9 0 9 -6 9 -40 -2z"/>
<path d="M6918 5093 c6 -2 18 -2 25 0 6 3 1 5 -13 5 -14 0 -19 -2 -12 -5z"/>
<path d="M7003 5083 c9 -2 23 -2 30 0 6 3 -1 5 -18 5 -16 0 -22 -2 -12 -5z"/>
<path d="M6718 5073 c6 -2 18 -2 25 0 6 3 1 5 -13 5 -14 0 -19 -2 -12 -5z"/>
<path d="M6950 5070 c-8 -5 -10 -10 -5 -10 6 0 17 5 25 10 8 5 11 10 5 10 -5
0 -17 -5 -25 -10z"/>
<path d="M7035 5070 c-28 -5 -32 -8 -15 -9 14 -1 43 -3 65 -6 36 -4 37 -4 10
5 -23 7 -19 8 20 3 88 -11 125 -11 131 -2 3 6 -11 9 -33 8 -21 -1 -60 0 -88 3
-27 4 -68 3 -90 -2z"/>
<path d="M6808 5063 c12 -2 30 -2 40 0 9 3 -1 5 -23 4 -22 0 -30 -2 -17 -4z"/>
<path d="M9140 5061 l-35 -7 40 -7 c22 -4 56 -7 75 -6 l35 0 -34 14 c-18 8
-36 14 -40 14 -3 -1 -22 -5 -41 -8z m57 -7 c-3 -3 -12 -4 -19 -1 -8 3 -5 6 6
6 11 1 17 -2 13 -5z"/>
<path d="M9458 5063 c7 -3 16 -2 19 1 4 3 -2 6 -13 5 -11 0 -14 -3 -6 -6z"/>
<path d="M6888 5053 c6 -2 18 -2 25 0 6 3 1 5 -13 5 -14 0 -19 -2 -12 -5z"/>
<path d="M7268 5044 c-14 -15 -26 -16 -79 -7 -34 5 -76 7 -93 3 -25 -6 -20 -7
26 -8 32 0 62 -4 68 -7 6 -4 39 -3 73 1 51 6 58 9 37 15 -19 7 -15 8 17 5 24
-2 46 0 49 5 10 17 -81 10 -98 -7z"/>
<path d="M6973 5043 c15 -2 37 -2 50 0 12 2 0 4 -28 4 -27 0 -38 -2 -22 -4z"/>
<path d="M7408 5043 c6 -2 18 -2 25 0 6 3 1 5 -13 5 -14 0 -19 -2 -12 -5z"/>
<path d="M7458 5033 c6 -2 18 -2 25 0 6 3 1 5 -13 5 -14 0 -19 -2 -12 -5z"/>
<path d="M8950 5028 c0 -5 11 -8 25 -8 14 0 25 -5 25 -11 0 -7 -13 -9 -37 -5
-26 4 -32 3 -18 -3 18 -8 17 -9 -10 -14 -16 -2 -10 -2 15 1 25 2 67 6 93 8 27
1 52 6 55 10 4 4 -8 4 -25 1 -19 -4 -33 -2 -33 3 0 6 -8 11 -17 12 -10 1 16 5
57 8 73 7 73 7 -27 6 -57 0 -103 -4 -103 -8z"/>
<path d="M7310 5019 c-25 -6 -10 -7 50 -5 52 3 75 1 60 -4 -21 -7 -19 -8 13
-7 32 2 35 4 20 15 -18 13 -88 14 -143 1z"/>
<path d="M7580 5021 c14 -4 42 -6 63 -3 43 5 52 -14 10 -21 -16 -2 -3 -2 27 1
30 3 98 8 150 12 l95 8 -100 0 c-55 0 -138 3 -185 5 -47 3 -74 2 -60 -2z"/>
<path d="M8864 5021 c18 -7 66 -3 66 5 0 2 -19 4 -42 3 -31 0 -37 -3 -24 -8z"/>
<path d="M9180 5020 c-21 -7 -21 -8 -5 -9 11 0 27 4 35 9 18 11 5 11 -30 0z"/>
<path d="M9268 5023 c7 -3 16 -2 19 1 4 3 -2 6 -13 5 -11 0 -14 -3 -6 -6z"/>
<path d="M7518 5013 c6 -2 18 -2 25 0 6 3 1 5 -13 5 -14 0 -19 -2 -12 -5z"/>
<path d="M8703 5013 c9 -2 25 -2 35 0 9 3 1 5 -18 5 -19 0 -27 -2 -17 -5z"/>
<path d="M8790 5010 c-18 -12 -2 -12 25 0 13 6 15 9 5 9 -8 0 -22 -4 -30 -9z"/>
<path d="M8003 5004 c7 -8 397 -7 405 0 3 3 -88 6 -203 6 -115 0 -206 -3 -202
-6z"/>
<path d="M8448 5003 c7 -3 16 -2 19 1 4 3 -2 6 -13 5 -11 0 -14 -3 -6 -6z"/>
<path d="M8477 4997 c-4 -11 8 -12 57 -6 109 14 112 16 30 18 -60 1 -83 -3
-87 -12z"/>
<path d="M7533 4993 c15 -2 37 -2 50 0 12 2 0 4 -28 4 -27 0 -38 -2 -22 -4z"/>
<path d="M7723 4983 c9 -2 23 -2 30 0 6 3 -1 5 -18 5 -16 0 -22 -2 -12 -5z"/>
<path d="M7818 4983 c7 -3 16 -2 19 1 4 3 -2 6 -13 5 -11 0 -14 -3 -6 -6z"/>
<path d="M7877 4978 c-15 -10 110 -8 143 1 15 5 -5 7 -53 7 -43 -1 -84 -4 -90
-8z"/>
<path d="M8258 4983 c12 -2 32 -2 45 0 12 2 2 4 -23 4 -25 0 -35 -2 -22 -4z"/>
<path d="M8711 4979 c16 -10 76 -11 101 -1 10 4 -12 8 -49 8 -41 1 -60 -2 -52
-7z"/>
<path d="M8128 4973 c6 -2 18 -2 25 0 6 3 1 5 -13 5 -14 0 -19 -2 -12 -5z"/>
<path d="M8273 4963 c48 -2 125 -2 170 0 45 1 6 3 -88 3 -93 0 -130 -2 -82 -3z"/>
<path d="M7670 4201 c0 -25 6 -27 13 -6 4 8 2 17 -3 20 -6 4 -10 -3 -10 -14z"/>
<path d="M5800 4184 c0 -7 133 -532 190 -749 45 -171 180 -699 180 -703 0 -6
65 5 111 18 35 10 36 12 29 43 -4 17 -33 131 -65 252 -31 121 -87 339 -125
485 -37 146 -89 348 -115 450 -26 102 -50 188 -54 191 -9 10 -151 22 -151 13z"/>
<path d="M10910 4184 c-458 -30 -548 -38 -575 -50 -19 -9 -56 -13 -95 -12 -58
3 -65 1 -68 -17 -3 -20 3 -20 355 -20 284 0 388 -4 503 -18 276 -34 445 -78
595 -155 196 -100 282 -247 240 -407 -58 -218 -296 -452 -720 -707 -346 -208
-703 -378 -1205 -574 -91 -36 -174 -69 -185 -74 -11 -5 -54 -20 -96 -34 -42
-14 -127 -44 -188 -66 -366 -131 -1056 -329 -1501 -430 -169 -39 -187 -45
-211 -73 -23 -26 -30 -29 -63 -23 -20 4 -34 11 -31 17 8 12 -11 11 -57 -2 -43
-11 -48 -27 -17 -55 36 -33 42 -53 24 -80 -20 -31 -38 -23 -25 11 7 20 4 30
-15 54 -14 16 -25 34 -25 40 0 15 -28 14 -108 -4 -78 -17 -344 -65 -517 -94
-646 -106 -1319 -157 -1762 -132 -126 7 -249 15 -275 18 -41 4 -46 3 -44 -14
2 -10 -7 -41 -19 -69 l-23 -52 37 -6 c117 -18 435 -28 721 -23 523 10 1030 59
1683 163 91 14 107 20 107 35 0 10 13 25 29 34 16 8 32 24 36 34 14 44 60 35
118 -23 l25 -25 103 19 c527 97 1229 264 1664 395 44 13 157 47 250 74 180 53
517 162 650 211 343 124 650 245 900 353 238 102 659 313 737 368 14 11 52 33
83 49 30 16 108 64 173 106 421 277 652 543 652 750 0 253 -342 429 -960 494
-101 11 -787 21 -900 14z m1039 -1347 c-2 -1 -13 -9 -24 -17 -19 -14 -19 -14
-6 3 7 9 18 17 24 17 6 0 8 -1 6 -3z"/>
<path d="M6020 4161 c0 -7 38 -159 85 -339 46 -180 113 -442 150 -582 36 -140
77 -302 92 -359 l27 -103 32 5 c38 6 30 32 73 -228 39 -229 47 -275 53 -281 3
-2 59 7 124 21 66 14 123 25 128 25 20 0 -28 745 -99 1520 -14 151 -27 280
-29 286 -3 7 -64 13 -168 18 -89 4 -178 9 -195 12 -32 6 -33 5 -33 -27 1 -19
16 -151 34 -294 19 -143 32 -262 31 -264 -4 -4 -4 -3 -85 320 -34 136 -66 252
-70 259 -11 17 -150 27 -150 11z"/>
<path d="M10055 4112 c-84 -8 -660 -94 -665 -99 -3 -3 15 -3 40 1 119 16 313
36 469 48 94 7 176 15 182 19 22 13 4 34 -26 31z"/>
<path d="M7325 4088 c-7 -21 -34 -450 -46 -748 -12 -288 -7 -660 11 -744 19
-92 44 -95 83 -8 68 152 186 729 290 1420 l13 92 -173 0 c-130 0 -175 -3 -178
-12z"/>
<path d="M10115 4090 c-3 -5 1 -10 9 -10 9 0 16 5 16 10 0 6 -4 10 -9 10 -6 0
-13 -4 -16 -10z"/>
<path d="M7966 3723 c-33 -203 -65 -406 -72 -453 -7 -47 -29 -185 -49 -307
-37 -236 -36 -265 7 -279 22 -7 64 18 72 43 3 10 28 162 56 338 28 176 57 361
65 410 41 252 84 525 90 568 l7 47 -59 0 -59 0 -58 -367z"/>
<path d="M9333 4003 c9 -2 25 -2 35 0 9 3 1 5 -18 5 -19 0 -27 -2 -17 -5z"/>
<path d="M10348 4003 c12 -2 30 -2 40 0 9 3 -1 5 -23 4 -22 0 -30 -2 -17 -4z"/>
<path d="M10450 4006 c0 -2 7 -6 15 -10 8 -3 15 -1 15 4 0 6 -7 10 -15 10 -8
0 -15 -2 -15 -4z"/>
<path d="M10658 4003 c12 -2 32 -2 45 0 12 2 2 4 -23 4 -25 0 -35 -2 -22 -4z"/>
<path d="M10087 3989 c-10 -6 -25 -8 -33 -5 -21 8 -17 -8 9 -32 14 -13 36 -22
53 -21 l29 0 -35 12 c-50 17 -34 32 33 31 32 -1 57 3 57 8 0 6 12 8 26 5 17
-3 22 -1 15 6 -6 6 -25 6 -57 -2 -33 -8 -50 -9 -57 -2 -13 13 -17 13 -40 0z"/>
<path d="M10813 3993 c9 -2 25 -2 35 0 9 3 1 5 -18 5 -19 0 -27 -2 -17 -5z"/>
<path d="M10876 3991 c-3 -5 8 -14 26 -20 31 -11 31 -11 13 9 -20 22 -31 25
-39 11z"/>
<path d="M9957 3983 c-25 -6 -3 -33 27 -32 19 1 18 2 -4 9 l-25 7 25 11 c25
11 11 14 -23 5z"/>
<path d="M10363 3983 c9 -2 23 -2 30 0 6 3 -1 5 -18 5 -16 0 -22 -2 -12 -5z"/>
<path d="M10808 3973 c6 -2 18 -2 25 0 6 3 1 5 -13 5 -14 0 -19 -2 -12 -5z"/>
<path d="M10960 3976 c0 -2 7 -7 16 -10 8 -3 12 -2 9 4 -6 10 -25 14 -25 6z"/>
<path d="M11016 3971 c-3 -4 6 -6 19 -3 14 2 25 6 25 8 0 8 -39 4 -44 -5z"/>
<path d="M9768 3963 c6 -2 18 -2 25 0 6 3 1 5 -13 5 -14 0 -19 -2 -12 -5z"/>
<path d="M10298 3963 c7 -3 16 -2 19 1 4 3 -2 6 -13 5 -11 0 -14 -3 -6 -6z"/>
<path d="M11140 3960 c20 -13 33 -13 25 0 -3 6 -14 10 -23 10 -15 0 -15 -2 -2
-10z"/>
<path d="M9605 3950 c-52 -6 -46 -7 38 -7 54 0 97 0 95 2 -9 7 -81 10 -133 5z"/>
<path d="M9810 3953 c-66 -8 -49 -18 33 -19 45 0 62 1 37 4 -31 2 -40 6 -30
13 8 5 11 8 5 7 -5 -1 -26 -3 -45 -5z"/>
<path d="M10218 3953 c12 -2 30 -2 40 0 9 3 -1 5 -23 4 -22 0 -30 -2 -17 -4z"/>
<path d="M11190 3949 c-13 -9 -13 -10 1 -6 9 3 35 -1 58 -9 31 -11 47 -11 59
-3 15 10 15 10 -1 5 -10 -3 -26 -2 -35 3 -32 16 -67 20 -82 10z"/>
<path d="M10300 3941 c22 -8 20 -9 -20 -11 -25 -2 -36 -4 -25 -6 11 -2 56 0
100 5 61 6 69 9 34 10 -26 0 -62 3 -80 6 -29 4 -30 3 -9 -4z"/>
<path d="M10930 3947 c0 -2 14 -13 30 -25 17 -13 30 -19 30 -14 0 4 -13 16
-30 25 -16 10 -30 16 -30 14z"/>
<path d="M9500 3930 c25 -8 127 -13 119 -6 -2 2 -35 6 -74 9 -41 3 -60 2 -45
-3z"/>
<path d="M9983 3933 c9 -2 23 -2 30 0 6 3 -1 5 -18 5 -16 0 -22 -2 -12 -5z"/>
<path d="M10463 3933 c9 -2 17 -9 17 -14 0 -5 8 -9 18 -9 15 1 15 2 -2 15 -11
8 -27 14 -35 14 -13 -1 -12 -2 2 -6z"/>
<path d="M9255 3903 l-80 -12 75 5 c116 8 184 15 189 19 7 8 -104 1 -184 -12z"/>
<path d="M10368 3913 c6 -2 18 -2 25 0 6 3 1 5 -13 5 -14 0 -19 -2 -12 -5z"/>
<path d="M10428 3913 c6 -2 18 -2 25 0 6 3 1 5 -13 5 -14 0 -19 -2 -12 -5z"/>
<path d="M11333 3913 c9 -2 23 -2 30 0 6 3 -1 5 -18 5 -16 0 -22 -2 -12 -5z"/>
<path d="M11393 3903 c9 -2 15 -9 12 -14 -4 -5 -2 -9 4 -9 5 0 12 4 15 9 6 9
-17 22 -37 20 -7 -1 -4 -3 6 -6z"/>
<path d="M10518 3893 c6 -2 18 -2 25 0 6 3 1 5 -13 5 -14 0 -19 -2 -12 -5z"/>
<path d="M9133 3883 c9 -2 23 -2 30 0 6 3 -1 5 -18 5 -16 0 -22 -2 -12 -5z"/>
<path d="M10588 3883 c7 -3 16 -2 19 1 4 3 -2 6 -13 5 -11 0 -14 -3 -6 -6z"/>
<path d="M11440 3875 c-7 -8 -9 -15 -6 -15 4 0 14 7 22 15 9 8 11 15 6 15 -5
0 -15 -7 -22 -15z"/>
<path d="M9053 3873 c9 -2 23 -2 30 0 6 3 -1 5 -18 5 -16 0 -22 -2 -12 -5z"/>
<path d="M10712 3871 c-11 -6 -10 -10 4 -15 9 -3 19 -4 22 -1 3 3 0 5 -7 5 -7
0 -9 5 -6 10 7 12 4 12 -13 1z"/>
<path d="M10758 3863 c7 -3 16 -2 19 1 4 3 -2 6 -13 5 -11 0 -14 -3 -6 -6z"/>
<path d="M11005 3860 c3 -5 8 -10 11 -10 2 0 4 5 4 10 0 6 -5 10 -11 10 -5 0
-7 -4 -4 -10z"/>
<path d="M11504 3848 c-3 -4 2 -8 10 -8 8 0 17 4 20 8 3 5 -2 9 -10 9 -8 0
-17 -4 -20 -9z"/>
<path d="M11040 3846 c0 -2 7 -9 15 -16 9 -7 15 -8 15 -2 0 5 -7 12 -15 16 -8
3 -15 4 -15 2z"/>
<path d="M11553 3834 c0 -16 13 -19 21 -5 3 5 0 11 -7 14 -8 3 -14 -1 -14 -9z"/>
<path d="M10760 3836 c0 -2 9 -6 20 -9 11 -3 18 -1 14 4 -5 9 -34 13 -34 5z"/>
<path d="M11465 3830 c-3 -5 -2 -10 4 -10 5 0 13 5 16 10 3 6 2 10 -4 10 -5 0
-13 -4 -16 -10z"/>
<path d="M11585 3820 c-4 -6 -1 -9 7 -8 7 2 12 -3 10 -10 -1 -8 2 -11 8 -7 8
5 7 11 -1 21 -14 17 -16 17 -24 4z"/>
<path d="M11370 3810 c-9 -6 -10 -10 -3 -10 6 0 15 5 18 10 8 12 4 12 -15 0z"/>
<path d="M11498 3813 c7 -3 16 -2 19 1 4 3 -2 6 -13 5 -11 0 -14 -3 -6 -6z"/>
<path d="M10843 3805 c33 -22 96 -51 87 -40 -6 8 -21 17 -32 21 -14 4 -17 9
-9 13 7 4 -2 8 -19 8 -16 0 -29 -1 -27 -2z"/>
<path d="M11150 3790 c0 -5 5 -10 11 -10 5 0 7 5 4 10 -3 6 -8 10 -11 10 -2 0
-4 -4 -4 -10z"/>
<path d="M11630 3791 c0 -5 7 -12 16 -15 14 -5 15 -4 4 9 -14 17 -20 19 -20 6z"/>
<path d="M11325 3770 c-3 -5 -1 -10 4 -10 6 0 11 5 11 10 0 6 -2 10 -4 10 -3
0 -8 -4 -11 -10z"/>
<path d="M11120 3766 c0 -2 7 -9 15 -16 9 -7 15 -8 15 -2 0 5 -7 12 -15 16 -8
3 -15 4 -15 2z"/>
<path d="M11663 3755 c-10 -10 -9 -15 5 -21 36 -15 44 -13 25 9 -10 12 -18 23
-18 23 0 1 -5 -4 -12 -11z"/>
<path d="M11280 3750 c0 -6 5 -10 11 -10 8 0 7 -6 -2 -17 -13 -16 -12 -17 4
-4 21 17 22 27 2 35 -8 3 -15 1 -15 -4z"/>
<path d="M10987 3723 c-3 -5 6 -9 20 -10 19 -1 22 1 12 8 -17 11 -26 11 -32 2z"/>
<path d="M11245 3719 c-11 -17 1 -21 15 -4 8 9 8 15 2 15 -6 0 -14 -5 -17 -11z"/>
<path d="M11121 3704 c0 -11 3 -14 6 -6 3 7 2 16 -1 19 -3 4 -6 -2 -5 -13z"/>
<path d="M11176 3701 c-3 -5 3 -11 15 -14 16 -4 18 -3 8 9 -13 16 -16 17 -23
5z"/>
<path d="M11691 3705 c0 -5 4 -17 9 -25 7 -11 10 -11 10 -2 0 7 5 10 11 6 8
-4 8 -9 0 -17 -6 -6 -10 -22 -10 -36 1 -21 2 -22 6 -6 3 11 9 25 15 32 6 8 5
19 -2 34 -9 16 -14 18 -20 9 -6 -10 -9 -9 -13 1 -3 8 -6 10 -6 4z"/>
<path d="M11024 3689 c-3 -6 -1 -16 4 -21 8 -8 11 -5 9 11 -1 24 -3 25 -13 10z"/>
<path d="M11300 3671 c0 -10 19 -25 25 -20 1 2 -3 10 -11 17 -8 7 -14 8 -14 3z"/>
<path d="M11220 3650 c-9 -6 -10 -10 -3 -10 6 0 15 5 18 10 8 12 4 12 -15 0z"/>
<path d="M11061 3608 c13 -26 27 -44 32 -41 5 3 4 9 -3 13 -8 5 -9 16 -5 31 8
23 8 23 16 4 5 -13 8 -15 8 -5 1 18 -10 34 -25 37 -7 1 -10 -6 -7 -20 5 -21 4
-21 -17 3 -20 25 -20 25 1 -22z"/>
<path d="M11116 3636 c3 -9 11 -16 16 -16 13 0 5 23 -10 28 -7 2 -10 -2 -6
-12z"/>
<path d="M11731 3638 c0 -7 4 -22 9 -33 7 -17 9 -15 9 13 1 17 -3 32 -9 32 -5
0 -10 -6 -9 -12z"/>
<path d="M11320 3620 c0 -5 5 -10 11 -10 5 0 7 5 4 10 -3 6 -8 10 -11 10 -2 0
-4 -4 -4 -10z"/>
<path d="M11692 3595 c0 -16 2 -22 5 -12 2 9 2 23 0 30 -3 6 -5 -1 -5 -18z"/>
<path d="M11160 3599 c0 -5 5 -7 10 -4 6 3 10 8 10 11 0 2 -4 4 -10 4 -5 0
-10 -5 -10 -11z"/>
<path d="M11280 3606 c0 -2 7 -9 15 -16 9 -7 15 -8 15 -2 0 5 -7 12 -15 16 -8
3 -15 4 -15 2z"/>
<path d="M11716 3573 c-6 -14 -5 -15 5 -6 7 7 10 15 7 18 -3 3 -9 -2 -12 -12z"/>
<path d="M11095 3540 c-4 -12 -5 -24 -2 -27 3 -2 8 5 12 17 4 12 5 24 2 27 -3
2 -8 -5 -12 -17z"/>
<path d="M11360 3526 c0 -2 7 -9 15 -16 9 -7 15 -8 15 -2 0 5 -7 12 -15 16 -8
3 -15 4 -15 2z"/>
<path d="M11716 3477 c3 -10 9 -15 12 -12 3 3 0 11 -7 18 -10 9 -11 8 -5 -6z"/>
<path d="M11087 3438 c-10 -24 -26 -60 -36 -80 -12 -23 -14 -35 -6 -32 7 3 18
23 26 46 7 22 15 36 17 29 8 -25 18 -9 20 34 1 25 0 45 -1 45 -2 0 -11 -19
-20 -42z"/>
<path d="M11400 3472 c0 -12 19 -26 26 -19 2 2 -2 10 -11 17 -9 8 -15 8 -15 2z"/>
<path d="M8301 3437 c-147 -9 -181 -18 -181 -45 0 -17 13 -18 198 -19 353 0
512 -58 512 -183 0 -129 -222 -308 -620 -502 -498 -242 -1227 -460 -1845 -553
-268 -40 -381 -48 -613 -42 -198 4 -224 7 -297 31 -139 44 -185 105 -154 199
34 105 266 280 577 434 96 47 172 91 172 99 0 17 -1 16 -171 -61 -232 -105
-468 -248 -595 -360 -98 -86 -154 -187 -138 -249 16 -63 109 -122 241 -152 95
-22 436 -30 616 -15 1036 88 2422 547 2947 976 236 193 224 350 -33 416 -146
37 -321 45 -616 26z"/>
<path d="M11440 3446 c0 -2 7 -9 15 -16 9 -7 15 -8 15 -2 0 5 -7 12 -15 16 -8
3 -15 4 -15 2z"/>
<path d="M11646 3399 c2 -4 13 -7 24 -6 23 2 17 10 -10 12 -10 1 -17 -2 -14
-6z"/>
<path d="M11485 3380 c3 -5 8 -10 11 -10 2 0 4 5 4 10 0 6 -5 10 -11 10 -5 0
-7 -4 -4 -10z"/>
<path d="M11616 3358 c-24 -33 -19 -45 5 -14 12 15 19 29 16 32 -3 3 -12 -5
-21 -18z"/>
<path d="M11535 3350 c3 -5 8 -10 11 -10 2 0 4 5 4 10 0 6 -5 10 -11 10 -5 0
-7 -4 -4 -10z"/>
<path d="M10996 3267 c-14 -24 -37 -54 -51 -67 -14 -13 -25 -28 -25 -34 0 -6
4 -4 10 4 5 8 12 11 16 7 4 -4 -1 -16 -11 -27 -10 -11 -16 -23 -12 -26 9 -9
39 44 32 56 -4 7 6 26 23 43 16 18 33 43 37 56 6 18 9 20 16 10 6 -9 9 -10 9
-2 0 29 -21 20 -44 -20z"/>
<path d="M11544 3292 c-11 -10 -19 -22 -17 -29 2 -6 -3 -18 -12 -27 -9 -9 -13
-16 -8 -16 9 0 31 25 49 56 13 22 40 26 36 4 -3 -11 -1 -12 8 -3 7 6 9 16 6
22 -10 16 -38 13 -62 -7z"/>
<path d="M11450 3240 c-8 -5 -12 -12 -9 -15 4 -3 12 1 19 10 14 17 11 19 -10
5z"/>
<path d="M11470 3209 c0 -5 5 -7 10 -4 6 3 10 8 10 11 0 2 -4 4 -10 4 -5 0
-10 -5 -10 -11z"/>
<path d="M11510 3200 c-14 -10 -22 -21 -19 -24 3 -3 16 5 29 19 28 30 24 32
-10 5z"/>
<path d="M11371 3154 c13 -16 29 -19 29 -5 0 5 -9 11 -21 14 -16 4 -18 3 -8
-9z"/>
<path d="M11436 3135 c-11 -8 -15 -15 -9 -15 6 0 16 7 23 15 16 19 11 19 -14
0z"/>
<path d="M10895 3110 c-3 -5 -1 -10 4 -10 6 0 11 5 11 10 0 6 -2 10 -4 10 -3
0 -8 -4 -11 -10z"/>
<path d="M10830 3085 c-13 -14 -19 -25 -14 -25 5 0 15 9 22 21 8 12 19 18 28
15 9 -3 12 -1 9 4 -10 15 -20 12 -45 -15z"/>
<path d="M11366 3078 c3 -4 11 -5 19 -1 21 7 19 12 -4 10 -11 0 -18 -5 -15 -9z"/>
<path d="M11339 3071 c10 -7 8 -12 -10 -24 -12 -9 -21 -19 -18 -21 2 -2 14 4
27 15 23 18 22 39 -1 39 -8 0 -8 -3 2 -9z"/>
<path d="M10845 3050 c-3 -5 -1 -10 4 -10 6 0 11 5 11 10 0 6 -2 10 -4 10 -3
0 -8 -4 -11 -10z"/>
<path d="M10767 3019 c7 -7 15 -10 18 -7 3 3 -2 9 -12 12 -14 6 -15 5 -6 -5z"/>
<path d="M11286 3013 c-4 -4 -15 -8 -23 -8 -9 0 -17 -8 -19 -18 -1 -9 2 -15 7
-11 5 3 6 10 3 16 -5 7 -1 9 9 5 8 -3 21 1 27 9 13 14 9 20 -4 7z"/>
<path d="M10683 2965 c-20 -18 -22 -23 -9 -18 11 4 17 2 13 -3 -3 -6 4 -11 15
-11 11 -1 18 1 14 4 -3 3 -1 14 4 24 16 29 -6 32 -37 4z m31 0 c-4 -8 -11 -15
-16 -15 -6 0 -5 6 2 15 7 8 14 15 16 15 2 0 1 -7 -2 -15z"/>
<path d="M11134 2975 c-17 -13 -17 -14 -2 -15 9 0 20 5 23 11 11 17 0 20 -21
4z"/>
<path d="M11205 2980 c2 -4 -7 -12 -20 -18 -25 -11 -34 -32 -15 -32 6 0 10 5
10 11 0 6 7 9 15 6 14 -6 28 7 31 29 1 6 -4 11 -12 11 -7 0 -11 -3 -9 -7z"/>
<path d="M11123 2917 c1 -7 -6 -11 -15 -9 -21 3 -24 -4 -5 -11 7 -3 21 1 30 8
15 11 16 13 2 18 -8 4 -14 1 -12 -6z"/>
<path d="M10579 2890 c-19 -16 -20 -19 -5 -13 13 4 17 3 12 -5 -4 -7 -3 -12 2
-12 10 0 52 38 52 47 0 3 -8 -1 -18 -10 -23 -21 -39 -22 -22 -2 18 21 6 19
-21 -5z"/>
<path d="M11053 2897 c21 -18 22 -31 1 -23 -8 3 -12 2 -9 -4 3 -5 -12 -18 -34
-29 -22 -12 -43 -26 -47 -33 -5 -8 1 -7 16 3 14 9 47 29 74 44 30 18 44 31 35
33 -8 3 -23 9 -34 14 -19 8 -19 8 -2 -5z"/>
<path d="M10621 2861 c-11 -7 -11 -9 0 -14 10 -4 10 -6 2 -6 -17 -1 -17 -17 0
-24 8 -3 12 5 12 24 1 16 1 29 0 29 0 0 -6 -4 -14 -9z"/>
<path d="M10515 2850 c-4 -6 -29 -22 -57 -36 -27 -14 -48 -28 -45 -31 3 -3 23
5 44 18 54 32 88 59 75 59 -6 0 -14 -5 -17 -10z"/>
<path d="M10880 2820 c0 -5 5 -10 11 -10 5 0 7 5 4 10 -3 6 -8 10 -11 10 -2 0
-4 -4 -4 -10z"/>
<path d="M10555 2790 c-3 -5 -1 -10 4 -10 6 0 11 5 11 10 0 6 -2 10 -4 10 -3
0 -8 -4 -11 -10z"/>
<path d="M10590 2796 c0 -2 8 -10 18 -17 15 -13 16 -12 3 4 -13 16 -21 21 -21
13z"/>
<path d="M10910 2790 c-13 -8 -13 -10 2 -10 9 0 20 5 23 10 8 13 -5 13 -25 0z"/>
<path d="M10700 2760 c-8 -5 -11 -12 -7 -17 5 -4 12 -1 16 6 7 11 10 11 14 0
3 -9 6 -10 6 -2 1 17 -13 23 -29 13z"/>
<path d="M10817 2758 c2 -5 12 -8 21 -9 9 0 -4 -10 -30 -21 -27 -12 -48 -25
-48 -29 0 -4 23 4 50 17 28 13 50 28 50 33 0 5 10 11 23 14 12 2 1 4 -24 3
-26 -1 -45 -4 -42 -8z"/>
<path d="M10746 2735 c-11 -8 -16 -18 -12 -22 4 -4 11 -2 15 5 4 7 21 17 37
22 28 8 28 8 4 9 -14 0 -34 -6 -44 -14z"/>
<path d="M10660 2726 c0 -2 8 -10 18 -17 15 -13 16 -12 3 4 -13 16 -21 21 -21
13z"/>
<path d="M10350 2703 c-13 -15 -12 -16 4 -10 10 4 22 7 27 7 6 0 7 5 4 10 -9
14 -18 12 -35 -7z"/>
<path d="M10640 2711 c0 -10 19 -25 25 -20 1 2 -3 10 -11 17 -8 7 -14 8 -14 3z"/>
<path d="M10241 2691 c-25 -13 -30 -19 -18 -24 9 -3 24 5 38 19 27 28 25 29
-20 5z"/>
<path d="M10680 2659 c0 -5 5 -7 10 -4 6 3 10 8 10 11 0 2 -4 4 -10 4 -5 0
-10 -5 -10 -11z"/>
<path d="M10603 2624 c-24 -14 -43 -28 -43 -31 0 -2 19 6 43 20 23 13 49 27
57 30 13 5 13 5 0 6 -8 0 -34 -11 -57 -25z"/>
<path d="M10117 2626 c-16 -12 -15 -14 13 -11 17 1 34 6 38 10 4 5 1 5 -5 1
-7 -4 -13 -2 -13 3 0 15 -11 13 -33 -3z"/>
<path d="M10164 2598 l-19 -23 25 20 c14 11 27 21 29 22 2 2 0 3 -6 3 -5 0
-18 -10 -29 -22z"/>
<path d="M10062 2601 c-11 -7 -10 -9 3 -14 9 -4 14 -3 10 2 -3 5 1 12 7 14 7
3 9 6 3 6 -5 0 -16 -3 -23 -8z"/>
<path d="M10513 2593 c9 -2 15 -9 12 -14 -3 -5 1 -6 10 -2 13 5 14 7 3 14 -7
5 -20 8 -28 8 -11 -1 -10 -3 3 -6z"/>
<path d="M10026 2581 c-3 -5 7 -14 24 -19 22 -8 31 -8 36 1 4 7 3 9 -1 4 -5
-4 -19 0 -31 8 -13 8 -25 11 -28 6z"/>
<path d="M10425 2570 c-16 -11 -26 -20 -22 -20 11 0 67 29 67 35 0 10 -16 4
-45 -15z"/>
<path d="M10116 2571 c-4 -5 -2 -12 3 -15 5 -4 12 -2 15 3 4 5 2 12 -3 15 -5
4 -12 2 -15 -3z"/>
<path d="M9985 2560 c-3 -5 -2 -10 4 -10 5 0 13 5 16 10 3 6 2 10 -4 10 -5 0
-13 -4 -16 -10z"/>
<path d="M10442 2544 c-12 -8 -27 -12 -32 -9 -6 3 -10 2 -10 -3 0 -5 -14 -15
-30 -22 -17 -7 -29 -14 -27 -16 4 -5 103 39 127 55 8 6 10 11 5 11 -6 0 -21
-7 -33 -16z"/>
<path d="M9945 2540 c-3 -5 1 -10 9 -10 9 0 16 5 16 10 0 6 -4 10 -9 10 -6 0
-13 -4 -16 -10z"/>
<path d="M9998 2533 c7 -3 16 -2 19 1 4 3 -2 6 -13 5 -11 0 -14 -3 -6 -6z"/>
<path d="M10086 2524 c-23 -23 -20 -30 4 -9 11 10 20 20 20 22 0 7 -9 2 -24
-13z"/>
<path d="M9861 2501 c-11 -7 -9 -11 9 -21 12 -6 24 -9 27 -6 3 3 -3 9 -13 13
-17 6 -17 8 6 14 20 6 21 7 5 8 -11 0 -26 -3 -34 -8z"/>
<path d="M9804 2475 c-18 -13 -18 -14 4 -8 12 3 25 9 28 14 8 14 -10 11 -32
-6z"/>
<path d="M10040 2479 c0 -5 5 -7 10 -4 6 3 10 8 10 11 0 2 -4 4 -10 4 -5 0
-10 -5 -10 -11z"/>
<path d="M10270 2475 c7 -8 17 -12 22 -9 6 4 5 10 -3 15 -22 14 -33 10 -19 -6z"/>
<path d="M10103 2466 c5 -14 3 -17 -8 -12 -22 8 -18 -2 6 -15 13 -6 19 -7 15
-1 -3 6 -2 12 3 14 5 1 2 10 -7 18 -14 13 -15 12 -9 -4z"/>
<path d="M10243 2467 c4 -10 2 -17 -5 -17 -6 0 -9 -3 -5 -6 3 -3 12 -2 20 3
13 7 13 10 -1 23 -14 13 -15 12 -9 -3z"/>
<path d="M9742 2451 c-11 -7 -11 -9 0 -14 9 -3 15 1 15 9 0 8 -1 14 -1 14 -1
0 -7 -4 -14 -9z"/>
<path d="M9705 2430 c-3 -5 -1 -10 4 -10 6 0 11 5 11 10 0 6 -2 10 -4 10 -3 0
-8 -4 -11 -10z"/>
<path d="M10190 2430 c-9 -6 -10 -10 -3 -10 6 0 15 5 18 10 8 12 4 12 -15 0z"/>
<path d="M10066 2414 c-9 -24 -2 -26 12 -4 7 11 8 20 3 20 -5 0 -12 -7 -15
-16z"/>
<path d="M9590 2383 c-30 -15 -59 -27 -65 -28 -5 -1 -20 -5 -33 -9 -25 -8 -22
-21 8 -29 11 -3 18 -1 15 3 -7 11 64 52 77 44 7 -5 8 -2 3 6 -6 10 0 12 31 7
21 -4 46 -2 54 4 11 7 7 8 -15 4 -29 -6 -29 -6 -11 9 30 25 0 19 -64 -11z
m-75 -43 c-3 -5 -12 -10 -18 -10 -7 0 -6 4 3 10 19 12 23 12 15 0z"/>
<path d="M9955 2400 c-3 -5 -2 -10 4 -10 5 0 13 5 16 10 3 6 2 10 -4 10 -5 0
-13 -4 -16 -10z"/>
<path d="M10120 2399 c0 -5 5 -7 10 -4 6 3 10 8 10 11 0 2 -4 4 -10 4 -5 0
-10 -5 -10 -11z"/>
<path d="M10020 2392 c0 -4 5 -13 12 -20 9 -9 8 -12 -4 -12 -9 0 -18 5 -20 12
-3 9 -6 9 -12 0 -4 -7 -2 -12 4 -12 6 0 9 -4 5 -10 -3 -5 7 -5 25 2 30 10 30
11 14 29 -19 21 -24 23 -24 11z"/>
<path d="M10087 2389 c7 -7 15 -10 18 -7 3 3 -2 9 -12 12 -14 6 -15 5 -6 -5z"/>
<path d="M9888 2363 c7 -3 16 -2 19 1 4 3 -2 6 -13 5 -11 0 -14 -3 -6 -6z"/>
<path d="M9919 2353 c-13 -16 -12 -17 4 -4 16 13 21 21 13 21 -2 0 -10 -8 -17
-17z"/>
<path d="M9965 2350 c-3 -5 1 -10 10 -10 9 0 13 5 10 10 -3 6 -8 10 -10 10 -2
0 -7 -4 -10 -10z"/>
<path d="M9555 2330 c-16 -7 -17 -9 -3 -9 9 -1 20 4 23 9 7 11 7 11 -20 0z"/>
<path d="M9850 2330 c-24 -15 -7 -18 20 -3 14 7 18 13 10 13 -8 0 -22 -4 -30
-10z"/>
<path d="M9440 2320 c0 -6 -5 -8 -12 -4 -7 4 -8 3 -4 -5 6 -8 1 -10 -16 -6
-14 4 -31 0 -43 -10 -19 -16 -19 -16 3 -5 12 6 32 8 42 5 22 -7 57 19 40 30
-5 3 -10 1 -10 -5z"/>
<path d="M9828 2283 c7 -3 16 -2 19 1 4 3 -2 6 -13 5 -11 0 -14 -3 -6 -6z"/>
<path d="M9336 2266 c10 -8 21 -12 24 -10 5 6 -21 24 -34 24 -6 0 -1 -6 10
-14z"/>
<path d="M9708 2263 c7 -3 16 -2 19 1 4 3 -2 6 -13 5 -11 0 -14 -3 -6 -6z"/>
<path d="M9215 2235 l-60 -22 50 -1 c36 0 44 2 30 8 -14 6 -16 9 -4 9 8 1 24
8 35 16 24 18 22 18 -51 -10z"/>
<path d="M9727 2249 c-10 -6 -24 -8 -31 -6 -7 3 -13 -1 -13 -8 0 -14 32 -9 62
12 23 15 8 17 -18 2z"/>
<path d="M9270 2230 c-8 -5 -10 -10 -5 -10 6 0 17 5 25 10 8 5 11 10 5 10 -5
0 -17 -5 -25 -10z"/>
<path d="M9509 2202 c11 -8 11 -10 0 -15 -11 -4 -11 -6 1 -6 8 0 22 4 30 9 9
6 10 10 3 10 -6 0 -20 3 -30 6 -13 4 -15 3 -4 -4z"/>
<path d="M9096 2191 c-19 -7 -19 -8 0 -13 13 -3 21 0 21 8 0 8 -1 14 -1 13 -1
0 -10 -4 -20 -8z"/>
<path d="M9590 2190 c-9 -6 -10 -10 -3 -10 6 0 15 5 18 10 8 12 4 12 -15 0z"/>
<path d="M4404 2168 l-19 -23 23 19 c21 18 27 26 19 26 -2 0 -12 -10 -23 -22z"/>
<path d="M9050 2170 c-9 -6 -10 -10 -3 -10 6 0 15 5 18 10 8 12 4 12 -15 0z"/>
<path d="M9449 2176 c-1 -1 -3 -11 -4 -23 l-2 -22 46 19 c25 9 55 20 66 22 11
2 -8 4 -42 4 -35 1 -64 0 -64 0z m41 -10 c0 -11 -19 -15 -25 -6 -3 5 1 10 9
10 9 0 16 -2 16 -4z"/>
<path d="M8918 2133 c-10 -2 -18 -9 -18 -14 0 -13 14 -11 28 3 17 17 27 1 11
-18 -12 -15 -12 -17 1 -12 17 5 21 40 5 43 -5 2 -18 1 -27 -2z"/>
<path d="M4127 2050 c-143 -152 -209 -275 -211 -395 -1 -112 49 -198 162 -276
l42 -30 0 30 c0 17 10 60 21 95 l21 65 -37 45 c-71 87 -91 187 -59 297 16 57
82 176 109 199 16 14 39 50 31 50 -2 0 -38 -36 -79 -80z"/>
<path d="M9356 2115 c-4 -12 -2 -13 12 -7 9 5 24 12 32 15 9 3 4 6 -11 6 -15
1 -29 -6 -33 -14z"/>
<path d="M9279 2112 c-1 -4 -1 -11 0 -16 1 -4 -11 -5 -26 -1 -15 3 -24 3 -20
-1 10 -11 68 -14 62 -4 -3 5 0 10 7 12 8 3 6 7 -5 11 -9 3 -18 3 -18 -1z"/>
<path d="M4314 2076 c-38 -43 -74 -93 -74 -102 0 -4 14 11 32 34 34 44 52 50
24 8 -14 -22 -14 -25 -1 -20 8 4 15 10 15 16 0 5 7 17 16 25 13 13 13 17 2 24
-12 8 -4 13 14 10 4 0 4 7 1 16 -5 12 -3 14 7 8 9 -5 11 -4 6 3 -10 16 -8 17
-42 -22z"/>
<path d="M8805 2090 c-13 -5 -14 -9 -5 -9 8 0 24 4 35 9 13 5 14 9 5 9 -8 0
-24 -4 -35 -9z"/>
<path d="M8876 2079 c3 -6 -6 -8 -23 -4 -23 4 -24 4 -8 -4 12 -6 15 -10 6 -10
-8 -1 -12 -3 -9 -6 3 -3 20 1 38 8 29 13 30 15 11 20 -12 3 -19 1 -15 -4z"/>
<path d="M9210 2070 c19 -13 30 -13 30 0 0 6 -10 10 -22 10 -19 0 -20 -2 -8
-10z"/>
<path d="M8790 2060 c-9 -6 -10 -10 -3 -10 6 0 15 5 18 10 8 12 4 12 -15 0z"/>
<path d="M8690 2056 c0 -2 7 -7 16 -10 8 -3 12 -2 9 4 -6 10 -25 14 -25 6z"/>
<path d="M8665 2040 c-4 -6 -14 -9 -22 -6 -8 3 -11 1 -8 -4 3 -6 12 -10 20
-10 15 0 30 18 22 26 -3 3 -8 0 -12 -6z"/>
<path d="M9078 2043 c6 -2 18 -2 25 0 6 3 1 5 -13 5 -14 0 -19 -2 -12 -5z"/>
<path d="M9080 2025 c-101 -30 -122 -37 -118 -41 6 -5 150 37 163 48 11 10 11
10 -45 -7z"/>
<path d="M8598 2023 c7 -3 16 -2 19 1 4 3 -2 6 -13 5 -11 0 -14 -3 -6 -6z"/>
<path d="M8530 2000 c-13 -8 -13 -10 2 -10 9 0 20 5 23 10 8 13 -5 13 -25 0z"/>
<path d="M8665 1990 c-16 -7 -17 -9 -3 -9 9 -1 20 4 23 9 7 11 7 11 -20 0z"/>
<path d="M8460 1980 c-13 -8 -12 -10 3 -10 9 0 17 5 17 10 0 12 -1 12 -20 0z"/>
<path d="M4286 1888 c-5 -74 -3 -95 9 -107 8 -8 18 -11 22 -7 4 4 1 11 -6 15
-8 5 -10 14 -6 21 5 8 4 11 -3 7 -9 -6 -8 65 2 141 2 12 0 22 -4 22 -4 0 -10
-41 -14 -92z"/>
<path d="M8618 1973 c7 -3 16 -2 19 1 4 3 -2 6 -13 5 -11 0 -14 -3 -6 -6z"/>
<path d="M8685 1970 c-13 -6 -15 -9 -5 -9 8 0 22 4 30 9 18 12 2 12 -25 0z"/>
<path d="M8740 1959 c0 -5 9 -9 20 -9 11 0 20 2 20 4 0 2 -9 6 -20 9 -11 3
-20 1 -20 -4z"/>
<path d="M8843 1958 c-18 -4 -35 -12 -38 -17 -4 -8 14 -5 80 13 6 1 6 4 0 8
-6 3 -24 1 -42 -4z"/>
<path d="M8908 1963 c7 -3 16 -2 19 1 4 3 -2 6 -13 5 -11 0 -14 -3 -6 -6z"/>
<path d="M4208 1927 c-22 -45 -33 -101 -19 -93 6 4 11 19 11 34 0 15 8 36 17
47 15 20 15 20 11 -1 -3 -12 0 -21 7 -21 10 0 10 8 2 31 -5 17 -11 32 -12 33
-1 2 -8 -12 -17 -30z"/>
<path d="M8340 1945 c-31 -9 -37 -13 -20 -14 14 0 39 6 55 14 38 17 24 17 -35
0z"/>
<path d="M8361 1929 c-18 -6 -31 -13 -28 -16 8 -8 67 7 67 18 0 5 -1 9 -2 8
-2 0 -18 -5 -37 -10z"/>
<path d="M4271 1920 c-1 -8 -4 -26 -7 -40 -5 -22 -4 -23 6 -7 6 10 9 28 7 40
-2 12 -5 15 -6 7z"/>
<path d="M8697 1914 c-16 -9 -26 -18 -23 -21 3 -3 12 0 20 6 8 7 21 9 27 5 8
-4 9 -3 5 5 -6 8 0 10 21 6 23 -4 24 -4 8 4 -26 13 -26 13 -58 -5z"/>
<path d="M8195 1906 l-40 -13 41 1 c25 1 41 6 41 14 0 6 -1 12 -1 11 -1 0 -19
-6 -41 -13z"/>
<path d="M8258 1903 c7 -3 16 -2 19 1 4 3 -2 6 -13 5 -11 0 -14 -3 -6 -6z"/>
<path d="M8120 1880 c-13 -8 -13 -10 2 -10 9 0 20 5 23 10 8 13 -5 13 -25 0z"/>
<path d="M8520 1882 c0 -11 53 -20 72 -11 21 8 20 9 -5 4 -16 -3 -26 -2 -24 2
3 4 -6 8 -19 8 -13 0 -24 -1 -24 -3z"/>
<path d="M4238 1835 c-2 -19 0 -41 4 -48 4 -7 8 9 8 36 0 55 -6 62 -12 12z"/>
<path d="M8041 1859 c-46 -9 -66 -19 -38 -19 10 0 17 -3 17 -7 0 -5 19 -9 43
-10 l42 -1 -45 14 c-35 10 -38 13 -14 11 17 -2 36 3 43 10 13 14 14 14 -48 2z"/>
<path d="M8478 1863 c7 -3 16 -2 19 1 4 3 -2 6 -13 5 -11 0 -14 -3 -6 -6z"/>
<path d="M8115 1850 c-3 -5 -2 -10 4 -10 5 0 13 5 16 10 3 6 2 10 -4 10 -5 0
-13 -4 -16 -10z"/>
<path d="M8338 1853 c6 -2 18 -2 25 0 6 3 1 5 -13 5 -14 0 -19 -2 -12 -5z"/>
<path d="M4262 1830 c0 -14 2 -19 5 -12 2 6 2 18 0 25 -3 6 -5 1 -5 -13z"/>
<path d="M8400 1841 c0 -11 31 -24 39 -16 3 3 -1 10 -9 15 -19 12 -30 12 -30
1z"/>
<path d="M4196 1813 c-6 -14 -5 -15 5 -6 7 7 10 15 7 18 -3 3 -9 -2 -12 -12z"/>
<path d="M7904 1821 c3 -5 15 -7 26 -4 28 7 25 13 -6 13 -14 0 -23 -4 -20 -9z"/>
<path d="M4172 1780 c0 -19 2 -27 5 -17 2 9 2 25 0 35 -3 9 -5 1 -5 -18z"/>
<path d="M8152 1801 c-11 -7 -11 -9 0 -14 9 -3 15 1 15 9 0 8 -1 14 -1 14 -1
0 -7 -4 -14 -9z"/>
<path d="M8338 1803 c6 -2 18 -2 25 0 6 3 1 5 -13 5 -14 0 -19 -2 -12 -5z"/>
<path d="M7945 1790 c3 -5 12 -7 19 -4 8 3 17 1 21 -5 3 -6 -1 -11 -10 -11 -9
0 -13 -5 -9 -11 4 -7 12 -6 23 5 14 15 14 18 1 26 -20 13 -53 13 -45 0z"/>
<path d="M8088 1793 c7 -3 16 -2 19 1 4 3 -2 6 -13 5 -11 0 -14 -3 -6 -6z"/>
<path d="M8198 1793 c7 -3 16 -2 19 1 4 3 -2 6 -13 5 -11 0 -14 -3 -6 -6z"/>
<path d="M4212 1760 c0 -19 2 -27 5 -17 2 9 2 25 0 35 -3 9 -5 1 -5 -18z"/>
<path d="M7771 1774 c0 -11 3 -14 6 -6 3 7 2 16 -1 19 -3 4 -6 -2 -5 -13z"/>
<path d="M7846 1774 c-4 -9 -4 -19 -1 -22 3 -3 5 0 5 6 0 7 7 12 15 12 8 0 15
5 15 10 0 16 -27 11 -34 -6z"/>
<path d="M8227 1780 c-20 -4 -40 -10 -43 -13 -8 -8 64 3 91 14 24 9 3 9 -48
-1z"/>
<path d="M7685 1771 c-6 -5 -19 -11 -30 -14 -16 -4 -14 -5 6 -6 16 -1 29 5 33
14 6 17 4 19 -9 6z"/>
<path d="M4265 1760 c3 -5 8 -10 11 -10 2 0 4 5 4 10 0 6 -5 10 -11 10 -5 0
-7 -4 -4 -10z"/>
<path d="M7738 1763 c7 -3 16 -2 19 1 4 3 -2 6 -13 5 -11 0 -14 -3 -6 -6z"/>
<path d="M8135 1763 c-11 -3 -24 -10 -30 -15 -7 -7 -2 -9 15 -4 14 4 30 8 37
8 7 1 10 5 7 10 -3 4 -6 7 -7 7 -1 -1 -11 -3 -22 -6z"/>
<path d="M7590 1742 c0 -5 7 -9 15 -9 8 0 12 4 9 9 -3 4 -9 8 -15 8 -5 0 -9
-4 -9 -8z"/>
<path d="M7783 1740 c2 -8 12 -16 23 -17 13 -2 15 -1 4 4 -8 3 -19 11 -23 17
-6 7 -7 6 -4 -4z"/>
<path d="M4183 1719 c-2 -23 3 -25 10 -4 4 8 3 16 -1 19 -4 3 -9 -4 -9 -15z"/>
<path d="M4344 1730 c4 -11 -7 -20 -36 -32 -23 -10 -39 -21 -36 -24 4 -3 17 0
30 7 12 7 26 12 30 11 3 -1 12 5 19 14 9 12 10 17 0 27 -10 9 -11 9 -7 -3z"/>
<path d="M7538 1733 c6 -2 18 -2 25 0 6 3 1 5 -13 5 -14 0 -19 -2 -12 -5z"/>
<path d="M8015 1730 c-3 -5 3 -10 15 -10 12 0 18 5 15 10 -3 6 -10 10 -15 10
-5 0 -12 -4 -15 -10z"/>
<path d="M7488 1723 c7 -3 16 -2 19 1 4 3 -2 6 -13 5 -11 0 -14 -3 -6 -6z"/>
<path d="M7705 1721 c-3 -5 -1 -12 5 -16 5 -3 10 1 10 9 0 18 -6 21 -15 7z"/>
<path d="M7880 1721 c8 -5 33 -11 55 -15 25 -3 33 -3 20 3 -29 12 -93 22 -75
12z"/>
<path d="M4203 1702 c-9 -15 -7 -24 11 -47 17 -21 25 -25 31 -15 5 8 4 11 -3
6 -15 -9 -35 30 -27 54 8 25 3 25 -12 2z"/>
<path d="M4260 1710 c0 -5 5 -10 10 -10 6 0 10 5 10 10 0 6 -4 10 -10 10 -5 0
-10 -4 -10 -10z"/>
<path d="M7612 1705 c-7 -8 -9 -15 -4 -15 5 0 15 7 22 15 16 19 -1 19 -18 0z"/>
<path d="M7660 1710 c-13 -8 -12 -10 3 -10 9 0 17 5 17 10 0 12 -1 12 -20 0z"/>
<path d="M7395 1700 c-14 -7 -8 -8 20 -3 22 3 42 7 44 9 9 8 -45 2 -64 -6z"/>
<path d="M7807 1704 c-3 -3 -3 -12 0 -20 6 -16 39 -19 48 -4 4 6 3 10 -2 9 -4
-1 -17 -1 -28 1 l-20 1 20 9 c15 6 16 9 4 9 -9 1 -18 -2 -22 -5z"/>
<path d="M7908 1693 c7 -3 16 -2 19 1 4 3 -2 6 -13 5 -11 0 -14 -3 -6 -6z"/>
<path d="M7308 1683 c7 -3 16 -2 19 1 4 3 -2 6 -13 5 -11 0 -14 -3 -6 -6z"/>
<path d="M7444 1674 c-19 -15 -19 -15 1 -6 11 5 27 12 35 15 13 5 13 6 -1 6
-8 1 -24 -6 -35 -15z"/>
<path d="M7645 1680 c-3 -5 -2 -10 4 -10 5 0 13 5 16 10 3 6 2 10 -4 10 -5 0
-13 -4 -16 -10z"/>
<path d="M7708 1672 c10 -11 25 -16 37 -13 19 5 19 6 -2 9 -13 2 -23 8 -23 13
0 5 -7 9 -15 9 -12 0 -12 -3 3 -18z"/>
<path d="M7373 1673 c9 -2 23 -2 30 0 6 3 -1 5 -18 5 -16 0 -22 -2 -12 -5z"/>
<path d="M7505 1670 c3 -5 8 -10 11 -10 2 0 4 5 4 10 0 6 -5 10 -11 10 -5 0
-7 -4 -4 -10z"/>
<path d="M7175 1660 c-27 -7 -27 -8 -5 -8 14 0 39 4 55 8 27 7 27 8 5 8 -14 0
-38 -4 -55 -8z"/>
<path d="M7276 1661 c-3 -4 6 -6 19 -3 14 2 25 6 25 8 0 8 -39 4 -44 -5z"/>
<path d="M7568 1643 c7 -3 16 -2 19 1 4 3 -2 6 -13 5 -11 0 -14 -3 -6 -6z"/>
<path d="M7608 1643 c7 -3 16 -2 19 1 4 3 -2 6 -13 5 -11 0 -14 -3 -6 -6z"/>
<path d="M7033 1633 c-18 -7 10 -33 34 -32 14 0 12 3 -7 11 l-25 11 30 7 c27
7 27 8 5 8 -14 0 -31 -2 -37 -5z"/>
<path d="M7368 1633 c6 -2 18 -2 25 0 6 3 1 5 -13 5 -14 0 -19 -2 -12 -5z"/>
<path d="M7440 1633 c0 -1 15 -7 33 -13 l32 -10 -32 5 c-18 2 -33 0 -33 -5 0
-4 -8 -11 -17 -13 -10 -3 2 -3 27 1 25 3 56 9 70 13 l25 7 -25 2 -25 2 25 8
c18 5 10 7 -27 6 -29 -1 -53 -2 -53 -3z"/>
<path d="M7558 1623 c7 -3 16 -2 19 1 4 3 -2 6 -13 5 -11 0 -14 -3 -6 -6z"/>
<path d="M4450 1610 c-19 -3 -44 -12 -55 -19 l-20 -13 20 9 c11 4 48 8 83 8
34 0 62 0 62 1 0 9 -63 19 -90 14z"/>
<path d="M6935 1615 c-5 -2 -28 -7 -50 -10 -33 -6 -37 -9 -20 -15 29 -12 55
-11 30 1 -14 7 -5 8 35 6 30 -2 44 -2 31 0 -19 4 -21 7 -10 14 14 8 4 11 -16
4z"/>
<path d="M6978 1613 c6 -2 18 -2 25 0 6 3 1 5 -13 5 -14 0 -19 -2 -12 -5z"/>
<path d="M7373 1613 c9 -2 23 -2 30 0 6 3 -1 5 -18 5 -16 0 -22 -2 -12 -5z"/>
<path d="M6778 1583 c6 -2 18 -2 25 0 6 3 1 5 -13 5 -14 0 -19 -2 -12 -5z"/>
<path d="M7025 1581 c-19 -8 -19 -8 0 -19 21 -12 16 -13 -77 -17 -39 -2 -48
-15 -10 -15 42 0 141 23 120 28 -25 5 -22 20 5 25 18 4 19 4 2 5 -11 0 -29 -3
-40 -7z"/>
<path d="M7368 1583 c7 -3 16 -2 19 1 4 3 -2 6 -13 5 -11 0 -14 -3 -6 -6z"/>
<path d="M4353 1573 c9 -14 46 -23 52 -14 2 4 -1 8 -8 8 -7 0 -21 4 -31 9 -13
5 -17 4 -13 -3z"/>
<path d="M4590 1565 c24 -14 23 -15 -20 -10 l-45 5 40 -11 c22 -5 49 -8 60 -7
17 3 15 6 -12 21 -39 21 -58 22 -23 2z"/>
<path d="M4328 1553 c7 -3 16 -2 19 1 4 3 -2 6 -13 5 -11 0 -14 -3 -6 -6z"/>
<path d="M4410 1544 l-25 -15 25 7 c14 3 32 10 40 15 13 7 13 8 0 8 -8 0 -26
-6 -40 -15z"/>
<path d="M6618 1553 c7 -3 16 -2 19 1 4 3 -2 6 -13 5 -11 0 -14 -3 -6 -6z"/>
<path d="M7700 1550 c0 -5 4 -10 9 -10 6 0 13 5 16 10 3 6 -1 10 -9 10 -9 0
-16 -4 -16 -10z"/>
<path d="M4350 1540 c-9 -6 -10 -10 -3 -10 6 0 15 5 18 10 8 12 4 12 -15 0z"/>
<path d="M4655 1540 c3 -5 10 -10 16 -10 5 0 18 -9 29 -20 17 -17 18 -21 4
-35 -14 -13 -14 -17 1 -37 16 -22 17 -22 11 -2 -9 28 3 61 15 42 6 -9 9 -9 9
-1 0 6 -9 18 -20 26 -11 8 -17 17 -14 20 4 4 -5 11 -20 17 -34 13 -39 13 -31
0z"/>
<path d="M6538 1543 c12 -2 32 -2 45 0 12 2 2 4 -23 4 -25 0 -35 -2 -22 -4z"/>
<path d="M7140 1540 c-21 -7 -21 -8 -5 -9 11 0 27 4 35 9 18 11 5 11 -30 0z"/>
<path d="M6435 1530 c-7 -12 2 -12 30 0 19 8 19 9 -2 9 -12 1 -25 -3 -28 -9z"/>
<path d="M4630 1523 c8 -4 22 -16 31 -27 10 -12 20 -18 23 -15 9 9 -33 49 -52
48 -13 0 -14 -2 -2 -6z"/>
<path d="M6325 1520 l-40 -7 35 -1 c19 0 46 4 60 8 32 10 2 10 -55 0z"/>
<path d="M6568 1523 c6 -2 18 -2 25 0 6 3 1 5 -13 5 -14 0 -19 -2 -12 -5z"/>
<path d="M7005 1520 c-16 -7 -14 -8 12 -7 17 1 29 5 26 10 -5 9 -12 8 -38 -3z"/>
<path d="M6900 1503 l-25 -15 30 8 c17 4 41 7 54 7 18 -1 20 1 10 8 -19 12
-39 10 -69 -8z"/>
<path d="M6218 1503 c7 -3 16 -2 19 1 4 3 -2 6 -13 5 -11 0 -14 -3 -6 -6z"/>
<path d="M6397 1496 c-3 -6 8 -11 23 -11 40 0 47 12 11 17 -17 2 -32 0 -34 -6z"/>
<path d="M4840 1488 c0 -9 5 -20 10 -23 6 -3 10 -19 10 -36 0 -16 4 -29 9 -29
5 0 5 18 -1 43 -10 44 -28 73 -28 45z"/>
<path d="M4870 1490 c0 -5 7 -7 15 -4 8 4 15 8 15 10 0 2 -7 4 -15 4 -8 0 -15
-4 -15 -10z"/>
<path d="M5920 1479 l-85 -6 86 0 c48 0 91 -3 98 -7 18 -11 13 -29 -6 -21 -14
5 -15 3 -6 -6 16 -16 35 -1 28 22 -7 20 9 27 18 9 3 -6 4 -5 3 2 -3 15 -17 15
-136 7z"/>
<path d="M6685 1480 c-37 -7 -38 -7 -8 -9 17 0 40 -4 50 -7 13 -4 15 -3 4 4
-11 8 -11 10 0 15 18 7 4 6 -46 -3z"/>
<path d="M6775 1480 c-27 -7 -27 -8 -5 -8 14 0 36 4 50 8 20 6 21 8 5 8 -11 0
-33 -4 -50 -8z"/>
<path d="M4242 1467 c-21 -151 -16 -170 43 -193 43 -16 75 -12 46 6 -8 4 -12
17 -8 29 3 12 0 21 -5 21 -7 0 -9 20 -5 54 5 49 3 56 -16 69 -34 21 -54 26
-55 14z"/>
<path d="M4995 1469 c22 -4 51 -8 65 -7 16 0 11 3 -15 9 -22 4 -51 8 -65 7
-16 0 -11 -3 15 -9z"/>
<path d="M6488 1473 c7 -3 16 -2 19 1 4 3 -2 6 -13 5 -11 0 -14 -3 -6 -6z"/>
<path d="M5115 1460 c-3 -5 -34 -10 -68 -11 -56 -1 -59 -2 -27 -10 19 -4 44
-5 55 -2 11 3 45 6 75 6 l55 0 -45 6 c-42 7 -43 7 -15 13 30 5 30 5 3 7 -15 0
-30 -3 -33 -9z"/>
<path d="M5743 1459 c24 -6 45 -5 55 1 12 7 2 9 -38 9 -55 -1 -55 -1 -17 -10z"/>
<path d="M6380 1460 c0 -5 10 -10 23 -10 18 0 19 2 7 10 -19 13 -30 13 -30 0z"/>
<path d="M6600 1460 c-8 -6 -28 -8 -45 -5 l-30 5 28 -11 c21 -8 36 -8 54 0 13
6 29 8 35 5 7 -4 8 -2 4 4 -9 14 -26 15 -46 2z"/>
<path d="M4746 1447 c3 -10 9 -15 12 -12 3 3 0 11 -7 18 -10 9 -11 8 -5 -6z"/>
<path d="M5260 1450 c-17 -6 -9 -7 25 -3 28 3 52 7 54 9 8 7 -54 2 -79 -6z"/>
<path d="M5521 1456 c2 -2 31 -6 64 -9 37 -3 51 -2 35 3 -25 8 -107 13 -99 6z"/>
<path d="M5740 1446 c0 -2 7 -7 16 -10 8 -3 12 -2 9 4 -6 10 -25 14 -25 6z"/>
<path d="M6350 1430 c0 -5 -8 -10 -17 -11 -10 0 -13 -3 -6 -5 6 -3 24 2 40 10
26 14 27 15 6 16 -13 0 -23 -4 -23 -10z"/>
<path d="M6488 1433 c6 -2 18 -2 25 0 6 3 1 5 -13 5 -14 0 -19 -2 -12 -5z"/>
<path d="M4973 1423 c9 -2 23 -2 30 0 6 3 -1 5 -18 5 -16 0 -22 -2 -12 -5z"/>
<path d="M5088 1423 c6 -2 18 -2 25 0 6 3 1 5 -13 5 -14 0 -19 -2 -12 -5z"/>
<path d="M5168 1423 c12 -2 32 -2 45 0 12 2 2 4 -23 4 -25 0 -35 -2 -22 -4z"/>
<path d="M5688 1423 c7 -3 16 -2 19 1 4 3 -2 6 -13 5 -11 0 -14 -3 -6 -6z"/>
<path d="M5960 1426 c0 -2 11 -6 25 -8 13 -3 22 -1 19 3 -5 9 -44 13 -44 5z"/>
<path d="M4748 1403 c7 -3 16 -2 19 1 4 3 -2 6 -13 5 -11 0 -14 -3 -6 -6z"/>
<path d="M5018 1403 c7 -3 16 -2 19 1 4 3 -2 6 -13 5 -11 0 -14 -3 -6 -6z"/>
<path d="M5133 1403 c9 -2 23 -2 30 0 6 3 -1 5 -18 5 -16 0 -22 -2 -12 -5z"/>
<path d="M5658 1403 c7 -3 16 -2 19 1 4 3 -2 6 -13 5 -11 0 -14 -3 -6 -6z"/>
<path d="M5898 1403 c7 -3 16 -2 19 1 4 3 -2 6 -13 5 -11 0 -14 -3 -6 -6z"/>
<path d="M6046 1399 c5 -9 -4 -10 -35 -5 -46 7 -91 -1 -91 -16 0 -6 7 -7 18
-2 9 4 31 7 47 7 36 -1 118 7 113 11 -1 2 -16 6 -31 10 -21 5 -27 4 -21 -5z"/>
<path d="M4394 1375 c-18 -72 30 -140 83 -116 21 10 24 16 19 42 -4 21 0 34
12 47 16 16 14 18 -33 34 -66 23 -74 22 -81 -7z"/>
<path d="M4968 1393 c7 -3 16 -2 19 1 4 3 -2 6 -13 5 -11 0 -14 -3 -6 -6z"/>
<path d="M5463 1393 c15 -2 39 -2 55 0 15 2 2 4 -28 4 -30 0 -43 -2 -27 -4z"/>
<path d="M7436 1384 c-10 -25 12 -44 50 -44 39 0 43 11 12 40 -26 24 -54 26
-62 4z"/>
<path d="M5698 1383 c12 -2 32 -2 45 0 12 2 2 4 -23 4 -25 0 -35 -2 -22 -4z"/>
<path d="M4953 1373 c9 -2 25 -2 35 0 9 3 1 5 -18 5 -19 0 -27 -2 -17 -5z"/>
<path d="M5180 1370 c-16 -5 -2 -6 35 -3 33 3 62 7 64 9 8 7 -74 2 -99 -6z"/>
<path d="M5378 1373 c12 -2 32 -2 45 0 12 2 2 4 -23 4 -25 0 -35 -2 -22 -4z"/>
<path d="M5580 1370 c14 -4 36 -8 50 -8 22 0 22 1 -5 8 -16 4 -39 8 -50 8 -16
0 -15 -2 5 -8z"/>
<path d="M5848 1373 c7 -3 16 -2 19 1 4 3 -2 6 -13 5 -11 0 -14 -3 -6 -6z"/>
<path d="M5083 1363 c9 -2 23 -2 30 0 6 3 -1 5 -18 5 -16 0 -22 -2 -12 -5z"/>
<path d="M5703 1363 c15 -2 39 -2 55 0 15 2 2 4 -28 4 -30 0 -43 -2 -27 -4z"/>
<path d="M4555 1343 c31 -30 10 -92 -39 -120 -17 -9 -12 -12 34 -22 62 -13 73
-5 89 68 12 58 8 67 -44 80 -57 14 -59 14 -40 -6z"/>
<path d="M5403 1353 c26 -2 67 -2 90 0 23 2 2 3 -48 3 -49 0 -68 -1 -42 -3z"/>
<path d="M7380 1330 c-12 -8 -9 -10 13 -10 15 0 27 5 27 10 0 13 -20 13 -40 0z"/>
<path d="M4723 1282 c-1 -20 -8 -50 -17 -66 -18 -35 -13 -46 18 -46 19 0 27
10 45 56 26 70 26 80 -1 88 -39 10 -43 7 -45 -32z"/>
<path d="M3247 893 c1789 -2 4717 -2 6505 0 1789 1 326 2 -3252 2 -3578 0
-5041 -1 -3253 -2z"/>
<path d="M43 873 c9 -2 23 -2 30 0 6 3 -1 5 -18 5 -16 0 -22 -2 -12 -5z"/>
<path d="M178 873 c7 -3 16 -2 19 1 4 3 -2 6 -13 5 -11 0 -14 -3 -6 -6z"/>
<path d="M873 873 c9 -2 25 -2 35 0 9 3 1 5 -18 5 -19 0 -27 -2 -17 -5z"/>
<path d="M1003 873 c9 -2 23 -2 30 0 6 3 -1 5 -18 5 -16 0 -22 -2 -12 -5z"/>
<path d="M1123 873 c9 -2 23 -2 30 0 6 3 -1 5 -18 5 -16 0 -22 -2 -12 -5z"/>
<path d="M1243 873 c9 -2 23 -2 30 0 6 3 -1 5 -18 5 -16 0 -22 -2 -12 -5z"/>
<path d="M1363 873 c9 -2 23 -2 30 0 6 3 -1 5 -18 5 -16 0 -22 -2 -12 -5z"/>
<path d="M1483 873 c9 -2 23 -2 30 0 6 3 -1 5 -18 5 -16 0 -22 -2 -12 -5z"/>
<path d="M1603 873 c9 -2 23 -2 30 0 6 3 -1 5 -18 5 -16 0 -22 -2 -12 -5z"/>
<path d="M1723 873 c9 -2 23 -2 30 0 6 3 -1 5 -18 5 -16 0 -22 -2 -12 -5z"/>
<path d="M1843 873 c9 -2 23 -2 30 0 6 3 -1 5 -18 5 -16 0 -22 -2 -12 -5z"/>
<path d="M1963 873 c9 -2 23 -2 30 0 6 3 -1 5 -18 5 -16 0 -22 -2 -12 -5z"/>
<path d="M2083 873 c9 -2 23 -2 30 0 6 3 -1 5 -18 5 -16 0 -22 -2 -12 -5z"/>
<path d="M2203 873 c9 -2 23 -2 30 0 6 3 -1 5 -18 5 -16 0 -22 -2 -12 -5z"/>
<path d="M2323 873 c9 -2 23 -2 30 0 6 3 -1 5 -18 5 -16 0 -22 -2 -12 -5z"/>
<path d="M2443 873 c9 -2 23 -2 30 0 6 3 -1 5 -18 5 -16 0 -22 -2 -12 -5z"/>
<path d="M2563 873 c9 -2 23 -2 30 0 6 3 -1 5 -18 5 -16 0 -22 -2 -12 -5z"/>
<path d="M2683 873 c9 -2 23 -2 30 0 6 3 -1 5 -18 5 -16 0 -22 -2 -12 -5z"/>
<path d="M2803 873 c9 -2 23 -2 30 0 6 3 -1 5 -18 5 -16 0 -22 -2 -12 -5z"/>
<path d="M2923 873 c9 -2 23 -2 30 0 6 3 -1 5 -18 5 -16 0 -22 -2 -12 -5z"/>
<path d="M3043 873 c9 -2 23 -2 30 0 6 3 -1 5 -18 5 -16 0 -22 -2 -12 -5z"/>
<path d="M3163 873 c9 -2 23 -2 30 0 6 3 -1 5 -18 5 -16 0 -22 -2 -12 -5z"/>
<path d="M3283 873 c9 -2 23 -2 30 0 6 3 -1 5 -18 5 -16 0 -22 -2 -12 -5z"/>
<path d="M3403 873 c9 -2 23 -2 30 0 6 3 -1 5 -18 5 -16 0 -22 -2 -12 -5z"/>
<path d="M3523 873 c9 -2 23 -2 30 0 6 3 -1 5 -18 5 -16 0 -22 -2 -12 -5z"/>
<path d="M3643 873 c9 -2 23 -2 30 0 6 3 -1 5 -18 5 -16 0 -22 -2 -12 -5z"/>
<path d="M3763 873 c9 -2 23 -2 30 0 6 3 -1 5 -18 5 -16 0 -22 -2 -12 -5z"/>
<path d="M3883 873 c9 -2 23 -2 30 0 6 3 -1 5 -18 5 -16 0 -22 -2 -12 -5z"/>
<path d="M4003 873 c9 -2 23 -2 30 0 6 3 -1 5 -18 5 -16 0 -22 -2 -12 -5z"/>
<path d="M4123 873 c9 -2 23 -2 30 0 6 3 -1 5 -18 5 -16 0 -22 -2 -12 -5z"/>
<path d="M4243 873 c9 -2 23 -2 30 0 6 3 -1 5 -18 5 -16 0 -22 -2 -12 -5z"/>
<path d="M4363 873 c9 -2 23 -2 30 0 6 3 -1 5 -18 5 -16 0 -22 -2 -12 -5z"/>
<path d="M4483 873 c9 -2 23 -2 30 0 6 3 -1 5 -18 5 -16 0 -22 -2 -12 -5z"/>
<path d="M4603 873 c9 -2 23 -2 30 0 6 3 -1 5 -18 5 -16 0 -22 -2 -12 -5z"/>
<path d="M4723 873 c9 -2 23 -2 30 0 6 3 -1 5 -18 5 -16 0 -22 -2 -12 -5z"/>
<path d="M4843 873 c9 -2 23 -2 30 0 6 3 -1 5 -18 5 -16 0 -22 -2 -12 -5z"/>
<path d="M4963 873 c9 -2 23 -2 30 0 6 3 -1 5 -18 5 -16 0 -22 -2 -12 -5z"/>
<path d="M5083 873 c9 -2 23 -2 30 0 6 3 -1 5 -18 5 -16 0 -22 -2 -12 -5z"/>
<path d="M5203 873 c9 -2 23 -2 30 0 6 3 -1 5 -18 5 -16 0 -22 -2 -12 -5z"/>
<path d="M5323 873 c9 -2 23 -2 30 0 6 3 -1 5 -18 5 -16 0 -22 -2 -12 -5z"/>
<path d="M5443 873 c9 -2 23 -2 30 0 6 3 -1 5 -18 5 -16 0 -22 -2 -12 -5z"/>
<path d="M5563 873 c9 -2 23 -2 30 0 6 3 -1 5 -18 5 -16 0 -22 -2 -12 -5z"/>
<path d="M5683 873 c9 -2 23 -2 30 0 6 3 -1 5 -18 5 -16 0 -22 -2 -12 -5z"/>
<path d="M5803 873 c9 -2 23 -2 30 0 6 3 -1 5 -18 5 -16 0 -22 -2 -12 -5z"/>
<path d="M5923 873 c9 -2 23 -2 30 0 6 3 -1 5 -18 5 -16 0 -22 -2 -12 -5z"/>
<path d="M6043 873 c9 -2 23 -2 30 0 6 3 -1 5 -18 5 -16 0 -22 -2 -12 -5z"/>
<path d="M6163 873 c9 -2 23 -2 30 0 6 3 -1 5 -18 5 -16 0 -22 -2 -12 -5z"/>
<path d="M6283 873 c9 -2 23 -2 30 0 6 3 -1 5 -18 5 -16 0 -22 -2 -12 -5z"/>
<path d="M6403 873 c9 -2 23 -2 30 0 6 3 -1 5 -18 5 -16 0 -22 -2 -12 -5z"/>
<path d="M6523 873 c9 -2 23 -2 30 0 6 3 -1 5 -18 5 -16 0 -22 -2 -12 -5z"/>
<path d="M6643 873 c9 -2 23 -2 30 0 6 3 -1 5 -18 5 -16 0 -22 -2 -12 -5z"/>
<path d="M6763 873 c9 -2 23 -2 30 0 6 3 -1 5 -18 5 -16 0 -22 -2 -12 -5z"/>
<path d="M6883 873 c9 -2 23 -2 30 0 6 3 -1 5 -18 5 -16 0 -22 -2 -12 -5z"/>
<path d="M7003 873 c9 -2 23 -2 30 0 6 3 -1 5 -18 5 -16 0 -22 -2 -12 -5z"/>
<path d="M7123 873 c9 -2 23 -2 30 0 6 3 -1 5 -18 5 -16 0 -22 -2 -12 -5z"/>
<path d="M7243 873 c9 -2 23 -2 30 0 6 3 -1 5 -18 5 -16 0 -22 -2 -12 -5z"/>
<path d="M7363 873 c9 -2 23 -2 30 0 6 3 -1 5 -18 5 -16 0 -22 -2 -12 -5z"/>
<path d="M7483 873 c9 -2 23 -2 30 0 6 3 -1 5 -18 5 -16 0 -22 -2 -12 -5z"/>
<path d="M7603 873 c9 -2 23 -2 30 0 6 3 -1 5 -18 5 -16 0 -22 -2 -12 -5z"/>
<path d="M7723 873 c9 -2 23 -2 30 0 6 3 -1 5 -18 5 -16 0 -22 -2 -12 -5z"/>
<path d="M7843 873 c9 -2 23 -2 30 0 6 3 -1 5 -18 5 -16 0 -22 -2 -12 -5z"/>
<path d="M7963 873 c9 -2 23 -2 30 0 6 3 -1 5 -18 5 -16 0 -22 -2 -12 -5z"/>
<path d="M8083 873 c9 -2 23 -2 30 0 6 3 -1 5 -18 5 -16 0 -22 -2 -12 -5z"/>
<path d="M8203 873 c9 -2 25 -2 35 0 9 3 1 5 -18 5 -19 0 -27 -2 -17 -5z"/>
<path d="M8323 873 c9 -2 23 -2 30 0 6 3 -1 5 -18 5 -16 0 -22 -2 -12 -5z"/>
<path d="M8553 873 c9 -2 25 -2 35 0 9 3 1 5 -18 5 -19 0 -27 -2 -17 -5z"/>
<path d="M8683 873 c9 -2 23 -2 30 0 6 3 -1 5 -18 5 -16 0 -22 -2 -12 -5z"/>
<path d="M8803 873 c9 -2 23 -2 30 0 6 3 -1 5 -18 5 -16 0 -22 -2 -12 -5z"/>
<path d="M8923 873 c9 -2 23 -2 30 0 6 3 -1 5 -18 5 -16 0 -22 -2 -12 -5z"/>
<path d="M9043 873 c9 -2 23 -2 30 0 6 3 -1 5 -18 5 -16 0 -22 -2 -12 -5z"/>
<path d="M9163 873 c9 -2 23 -2 30 0 6 3 -1 5 -18 5 -16 0 -22 -2 -12 -5z"/>
<path d="M9283 873 c9 -2 23 -2 30 0 6 3 -1 5 -18 5 -16 0 -22 -2 -12 -5z"/>
<path d="M9403 873 c9 -2 23 -2 30 0 6 3 -1 5 -18 5 -16 0 -22 -2 -12 -5z"/>
<path d="M9523 873 c9 -2 23 -2 30 0 6 3 -1 5 -18 5 -16 0 -22 -2 -12 -5z"/>
<path d="M9643 873 c9 -2 23 -2 30 0 6 3 -1 5 -18 5 -16 0 -22 -2 -12 -5z"/>
<path d="M9763 873 c9 -2 23 -2 30 0 6 3 -1 5 -18 5 -16 0 -22 -2 -12 -5z"/>
<path d="M9883 873 c9 -2 23 -2 30 0 6 3 -1 5 -18 5 -16 0 -22 -2 -12 -5z"/>
<path d="M10003 873 c9 -2 23 -2 30 0 6 3 -1 5 -18 5 -16 0 -22 -2 -12 -5z"/>
<path d="M10123 873 c9 -2 23 -2 30 0 6 3 -1 5 -18 5 -16 0 -22 -2 -12 -5z"/>
<path d="M10243 873 c9 -2 23 -2 30 0 6 3 -1 5 -18 5 -16 0 -22 -2 -12 -5z"/>
<path d="M10363 873 c9 -2 23 -2 30 0 6 3 -1 5 -18 5 -16 0 -22 -2 -12 -5z"/>
<path d="M10483 873 c9 -2 23 -2 30 0 6 3 -1 5 -18 5 -16 0 -22 -2 -12 -5z"/>
<path d="M10603 873 c9 -2 23 -2 30 0 6 3 -1 5 -18 5 -16 0 -22 -2 -12 -5z"/>
<path d="M10723 873 c9 -2 23 -2 30 0 6 3 -1 5 -18 5 -16 0 -22 -2 -12 -5z"/>
<path d="M10843 873 c9 -2 23 -2 30 0 6 3 -1 5 -18 5 -16 0 -22 -2 -12 -5z"/>
<path d="M10963 873 c9 -2 23 -2 30 0 6 3 -1 5 -18 5 -16 0 -22 -2 -12 -5z"/>
<path d="M11083 873 c9 -2 23 -2 30 0 6 3 -1 5 -18 5 -16 0 -22 -2 -12 -5z"/>
<path d="M11203 873 c9 -2 23 -2 30 0 6 3 -1 5 -18 5 -16 0 -22 -2 -12 -5z"/>
<path d="M11323 873 c9 -2 23 -2 30 0 6 3 -1 5 -18 5 -16 0 -22 -2 -12 -5z"/>
<path d="M11443 873 c9 -2 23 -2 30 0 6 3 -1 5 -18 5 -16 0 -22 -2 -12 -5z"/>
<path d="M11563 873 c9 -2 23 -2 30 0 6 3 -1 5 -18 5 -16 0 -22 -2 -12 -5z"/>
<path d="M11683 873 c9 -2 23 -2 30 0 6 3 -1 5 -18 5 -16 0 -22 -2 -12 -5z"/>
<path d="M11803 873 c9 -2 23 -2 30 0 6 3 -1 5 -18 5 -16 0 -22 -2 -12 -5z"/>
<path d="M11923 873 c9 -2 23 -2 30 0 6 3 -1 5 -18 5 -16 0 -22 -2 -12 -5z"/>
<path d="M12043 873 c9 -2 23 -2 30 0 6 3 -1 5 -18 5 -16 0 -22 -2 -12 -5z"/>
<path d="M12163 873 c9 -2 23 -2 30 0 6 3 -1 5 -18 5 -16 0 -22 -2 -12 -5z"/>
<path d="M12283 873 c9 -2 23 -2 30 0 6 3 -1 5 -18 5 -16 0 -22 -2 -12 -5z"/>
<path d="M12403 873 c9 -2 23 -2 30 0 6 3 -1 5 -18 5 -16 0 -22 -2 -12 -5z"/>
<path d="M12523 873 c9 -2 23 -2 30 0 6 3 -1 5 -18 5 -16 0 -22 -2 -12 -5z"/>
<path d="M12643 873 c9 -2 23 -2 30 0 6 3 -1 5 -18 5 -16 0 -22 -2 -12 -5z"/>
<path d="M12763 873 c9 -2 23 -2 30 0 6 3 -1 5 -18 5 -16 0 -22 -2 -12 -5z"/>
<path d="M12883 873 c9 -2 23 -2 30 0 6 3 -1 5 -18 5 -16 0 -22 -2 -12 -5z"/>
<path d="M2104 748 c-4 -13 -12 -26 -18 -30 -8 -6 -7 -8 2 -8 8 0 12 -18 13
-52 l2 -53 7 49 c3 28 12 52 19 54 8 3 6 8 -6 17 -17 13 -17 14 0 20 21 9 23
25 3 25 -8 0 -18 -10 -22 -22z"/>
<path d="M990 685 c0 -71 1 -75 23 -76 77 -4 107 19 107 81 0 50 -24 70 -83
70 l-47 0 0 -75z m98 53 c17 -17 15 -78 -5 -100 -9 -10 -29 -18 -45 -18 -28 0
-28 0 -28 65 l0 65 33 0 c18 0 38 -5 45 -12z"/>
<path d="M1593 685 c0 -44 2 -61 4 -37 2 23 2 59 0 80 -2 20 -4 1 -4 -43z"/>
<path d="M1980 737 c0 -20 -4 -23 -33 -19 -45 5 -62 -19 -58 -79 1 -22 47 -42
70 -29 10 5 21 6 25 3 7 -7 7 -3 9 85 1 34 -1 62 -5 62 -5 0 -8 -10 -8 -23z
m-8 -53 c15 -32 0 -59 -32 -59 -13 0 -28 8 -33 17 -15 23 6 68 33 68 12 0 25
-10 32 -26z"/>
<path d="M1155 696 c-35 -53 19 -115 71 -81 27 17 33 72 12 93 -21 21 -66 14
-83 -12z m61 6 c18 -12 24 -42 14 -63 -20 -36 -70 -17 -70 26 0 35 30 55 56
37z"/>
<path d="M1274 708 c2 -7 10 -32 17 -55 6 -24 17 -43 24 -43 6 0 18 19 25 43
l13 42 11 -39 c16 -55 31 -55 50 0 18 55 19 64 7 64 -5 0 -12 -17 -16 -37 -11
-58 -18 -62 -30 -14 -14 60 -30 61 -45 4 l-13 -48 -14 48 c-8 26 -19 47 -24
47 -6 0 -8 -6 -5 -12z"/>
<path d="M1460 661 l4 -56 6 44 c10 81 65 79 73 -2 3 -40 4 -39 5 10 2 56 -5
63 -63 61 l-30 -1 5 -56z"/>
<path d="M1640 701 c-26 -49 -4 -93 47 -93 47 0 71 62 37 96 -22 23 -71 20
-84 -3z m69 -5 c7 -8 11 -27 9 -43 -3 -24 -8 -28 -33 -28 -27 0 -30 4 -33 34
-5 46 31 69 57 37z"/>
<path d="M1775 709 c-4 -6 -4 -13 0 -17 3 -3 10 0 14 7 11 17 46 10 46 -9 0
-8 -11 -17 -25 -18 -49 -7 -67 -42 -30 -62 13 -7 26 -7 38 -1 13 7 23 6 30 -1
14 -14 15 -9 12 47 -1 22 -6 46 -12 53 -13 15 -64 16 -73 1z m63 -66 c-4 -22
-58 -31 -58 -10 0 20 10 27 37 27 18 0 24 -5 21 -17z"/>
<path d="M2161 660 l1 -55 11 42 c7 23 21 49 32 57 19 14 18 15 -12 13 l-33
-2 1 -55z"/>
<path d="M2242 708 c-21 -21 -15 -76 12 -93 52 -34 106 28 71 81 -17 26 -62
33 -83 12z m66 -10 c27 -27 7 -78 -30 -78 -25 0 -40 33 -28 64 10 28 38 34 58
14z"/>
<path d="M2360 664 c0 -30 5 -54 10 -54 6 0 10 17 10 39 0 79 59 83 61 4 l2
-48 7 43 c6 42 21 62 48 62 8 0 12 -17 12 -50 0 -28 5 -50 11 -50 6 0 9 21 7
53 l-3 52 -82 1 -83 1 0 -53z"/>
<path d="M10315 666 c15 -11 17 -17 8 -27 -8 -11 -8 -18 1 -31 11 -15 13 -13
12 15 -2 36 -12 57 -29 57 -6 0 -2 -6 8 -14z"/>
<path d="M10382 665 c-7 -8 -8 -15 -3 -15 5 0 12 -19 14 -42 3 -37 4 -35 5 15
1 31 1 57 0 57 -2 -1 -9 -7 -16 -15z"/>
<path d="M10473 670 c23 -15 21 -36 -5 -54 -12 -9 -18 -16 -12 -16 6 0 19 9
30 21 19 22 12 49 -17 56 -8 3 -7 0 4 -7z"/>
<path d="M10532 668 c-7 -7 -11 -28 -11 -47 l2 -36 6 40 c4 30 10 40 23 39 10
-1 15 2 12 7 -7 12 -18 11 -32 -3z"/>
<path d="M10609 663 c-13 -16 -12 -17 4 -4 23 18 49 -1 29 -21 -9 -9 -9 -15 0
-26 10 -11 8 -17 -7 -28 -10 -8 -14 -14 -8 -14 18 0 31 24 29 55 -3 53 -23 69
-47 38z"/>
<path d="M10698 673 c6 -2 18 -2 25 0 6 3 1 5 -13 5 -14 0 -19 -2 -12 -5z"/>
<path d="M10810 675 c-1 -5 -1 -22 0 -37 1 -22 -3 -27 -27 -31 l-28 -4 27 -2
c16 0 28 -8 30 -18 8 -36 14 20 7 62 -3 22 -7 36 -9 30z"/>
<path d="M10863 673 c9 -2 25 -2 35 0 9 3 1 5 -18 5 -19 0 -27 -2 -17 -5z"/>
<path d="M10682 640 c0 -14 2 -19 5 -12 2 6 2 18 0 25 -3 6 -5 1 -5 -13z"/>
<path d="M10553 629 c9 -5 17 -18 18 -27 0 -11 2 -12 6 -4 6 15 -14 42 -31 42
-6 0 -3 -5 7 -11z"/>
<path d="M10713 630 c9 -6 17 -17 17 -25 0 -8 -8 -19 -17 -24 -10 -6 -13 -11
-7 -11 6 0 17 7 25 16 14 18 3 45 -22 51 -8 3 -7 0 4 -7z"/>
<path d="M10872 590 c0 -14 2 -19 5 -12 2 6 2 18 0 25 -3 6 -5 1 -5 -13z"/>
<path d="M10440 578 c0 -4 14 -8 30 -8 17 0 30 2 30 4 0 2 -13 6 -30 8 -16 3
-30 1 -30 -4z"/>
<path d="M990 410 l0 -80 45 0 c59 0 95 32 95 84 0 51 -31 76 -92 76 l-48 0 0
-80z m94 40 c14 -14 11 -71 -5 -81 -8 -5 -24 -9 -36 -9 -21 0 -23 5 -23 56 l0
56 28 -7 c15 -3 31 -10 36 -15z"/>
<path d="M1920 480 c0 -5 7 -10 15 -10 8 0 15 5 15 10 0 6 -7 10 -15 10 -8 0
-15 -4 -15 -10z"/>
<path d="M1850 465 c0 -8 -7 -15 -17 -15 -15 0 -15 -2 1 -19 11 -12 15 -29 13
-47 -5 -34 8 -54 34 -54 23 0 24 7 4 26 -8 9 -15 26 -15 40 0 14 7 27 15 30 8
4 15 10 15 15 0 5 -7 9 -15 9 -8 0 -15 7 -15 15 0 8 -4 15 -10 15 -5 0 -10 -7
-10 -15z"/>
<path d="M1160 389 c0 -43 4 -59 12 -57 7 3 13 18 13 34 1 35 11 54 31 54 8 0
14 7 14 15 0 18 -21 20 -38 3 -9 -9 -12 -9 -12 0 0 7 -4 12 -10 12 -6 0 -10
-27 -10 -61z"/>
<path d="M1256 434 c-20 -20 -20 -68 0 -88 18 -19 55 -21 72 -4 20 20 13 28
-13 16 -21 -10 -29 -9 -43 5 -15 16 -13 17 31 17 51 0 58 10 31 48 -18 26 -56
29 -78 6z m48 -10 c26 -10 18 -24 -14 -24 -22 0 -28 4 -24 15 7 16 14 18 38 9z"/>
<path d="M1384 433 c-20 -20 -1 -32 21 -13 17 14 50 5 40 -10 -3 -5 -17 -10
-29 -10 -28 0 -49 -22 -44 -47 3 -14 14 -18 56 -19 l52 -2 0 40 c0 22 -5 48
-10 59 -13 24 -62 25 -86 2z m59 -68 c-7 -19 -43 -20 -43 -1 0 8 8 16 18 19
24 5 32 -1 25 -18z"/>
<path d="M1510 390 c0 -33 4 -60 10 -60 6 0 10 8 11 18 2 43 6 63 16 73 19 19
33 -1 33 -47 0 -32 4 -44 15 -44 11 0 15 12 15 44 0 25 5 48 12 52 16 10 38
-25 38 -63 0 -34 19 -47 21 -15 8 86 -6 112 -49 96 -20 -8 -33 -7 -45 0 -12 8
-22 7 -37 -2 -12 -7 -20 -8 -20 -2 0 5 -4 10 -10 10 -6 0 -10 -27 -10 -60z"/>
<path d="M1725 436 c-25 -18 -13 -45 25 -52 33 -7 42 -34 10 -34 -11 0 -20 5
-20 10 0 6 -7 10 -15 10 -18 0 -19 -12 -3 -28 27 -27 88 -11 88 23 0 18 -8 26
-35 35 -47 16 -45 33 3 24 34 -7 36 -6 23 9 -16 21 -51 22 -76 3z"/>
<path d="M1920 390 c0 -47 3 -60 15 -60 12 0 15 13 15 60 0 47 -3 60 -15 60
-12 0 -15 -13 -15 -60z"/>
<path d="M1980 389 c0 -45 3 -59 14 -59 11 0 16 14 18 48 2 34 7 47 18 47 11
0 16 -13 18 -47 2 -34 7 -48 18 -48 10 0 14 12 14 38 0 45 13 67 34 59 11 -5
16 -19 16 -52 0 -33 4 -45 15 -45 20 0 21 79 1 106 -13 17 -18 18 -45 7 -17
-6 -33 -8 -36 -3 -2 4 -23 7 -45 7 l-40 0 0 -58z"/>
<path d="M2200 430 c-11 -11 -20 -29 -20 -40 0 -46 72 -79 100 -45 10 13 7 14
-25 12 -23 -1 -40 3 -42 11 -3 8 9 12 41 12 25 0 46 2 46 5 0 4 -7 19 -15 35
-19 36 -55 40 -85 10z m58 -18 c2 -7 -7 -12 -22 -12 -27 0 -35 15 -13 23 17 7
30 3 35 -11z"/>
<path d="M2400 430 c-25 -25 -26 -62 -2 -83 23 -21 66 -22 82 -2 18 22 4 31
-24 16 -29 -16 -46 -8 -46 23 0 34 23 50 49 34 26 -16 42 -1 17 18 -27 19 -52
18 -76 -6z"/>
<path d="M2530 430 c-24 -24 -25 -48 -4 -78 19 -27 64 -29 87 -4 24 26 21 68
-5 86 -30 21 -54 20 -78 -4z m58 -9 c8 -5 12 -21 10 -37 -2 -23 -8 -29 -28
-29 -18 0 -26 6 -28 23 -3 22 13 52 27 52 3 0 12 -4 19 -9z"/>
<path d="M2660 389 c0 -68 15 -79 23 -18 10 76 47 79 47 3 0 -32 4 -44 15 -44
11 0 15 12 15 45 0 32 5 47 15 52 22 8 27 0 32 -52 6 -52 20 -60 25 -12 5 51
-10 87 -37 87 -13 0 -27 -5 -30 -10 -4 -7 -11 -8 -18 -1 -7 5 -29 9 -49 9
l-38 0 0 -59z"/>
<path d="M2326 363 c-12 -12 -6 -33 9 -33 8 0 15 6 15 14 0 17 -14 28 -24 19z"/>
<path d="M11633 265 c0 -44 2 -61 4 -37 2 23 2 59 0 80 -2 20 -4 1 -4 -43z"/>
<path d="M10473 275 c0 -33 2 -45 4 -27 2 18 2 45 0 60 -2 15 -4 0 -4 -33z"/>
<path d="M10801 273 c1 -32 4 -45 6 -30 4 22 9 28 26 25 13 -2 24 -13 28 -28
4 -14 7 -18 8 -8 2 30 -11 48 -35 48 -32 0 -33 37 -1 43 19 4 18 4 -5 6 -28 1
-28 0 -27 -56z"/>
<path d="M11052 275 c1 -47 2 -52 7 -25 4 22 12 35 21 35 9 0 18 -13 22 -35
l6 -35 -1 40 c-2 33 -6 40 -22 40 -11 0 -23 9 -27 20 -3 11 -6 -7 -6 -40z"/>
<path d="M11443 275 c0 -33 2 -45 4 -27 2 18 2 45 0 60 -2 15 -4 0 -4 -33z"/>
<path d="M11700 275 c0 -51 2 -55 23 -54 16 1 18 2 5 6 -14 3 -18 15 -18 48 0
33 4 45 18 48 13 4 11 5 -5 6 -21 1 -23 -3 -23 -54z"/>
<path d="M11388 309 c-2 -6 -2 -28 0 -50 3 -28 9 -39 21 -38 10 0 11 2 4 6
-15 5 -18 60 -4 65 5 2 3 8 -4 15 -9 8 -15 9 -17 2z"/>
<path d="M11766 295 c8 -37 14 -45 14 -19 0 10 -5 26 -10 34 -8 11 -9 7 -4
-15z"/>
<path d="M12208 307 c-7 -22 7 -80 20 -83 7 -1 8 0 2 3 -12 6 -13 60 -1 65 5
2 3 8 -4 15 -10 9 -14 9 -17 0z"/>
<path d="M10290 300 c0 -6 16 -18 36 -26 27 -11 34 -19 29 -32 -5 -13 -4 -14
6 -5 10 10 9 15 -1 28 -7 8 -18 15 -26 15 -7 0 -20 7 -28 16 -9 9 -16 11 -16
4z"/>
<path d="M10405 290 c-3 -6 1 -7 9 -4 18 7 21 14 7 14 -6 0 -13 -4 -16 -10z"/>
<path d="M10605 286 c17 -12 17 -13 -9 -20 -29 -7 -34 -40 -6 -42 10 -1 11 1
2 3 -17 6 -10 27 11 31 12 2 17 -3 17 -17 0 -12 4 -21 8 -21 12 0 1 64 -12 72
-20 14 -30 8 -11 -6z"/>
<path d="M10653 260 c0 -25 2 -35 4 -22 2 12 2 32 0 45 -2 12 -4 2 -4 -23z"/>
<path d="M10690 257 c4 -41 5 -41 8 -8 2 18 0 37 -5 42 -5 5 -6 -11 -3 -34z"/>
<path d="M10717 293 c6 -4 13 -22 16 -38 4 -27 5 -27 3 4 0 21 -7 36 -16 38
-10 3 -11 2 -3 -4z"/>
<path d="M10925 286 c17 -12 17 -13 -9 -20 -29 -7 -34 -40 -6 -42 10 -1 11 1
2 3 -17 6 -10 27 11 31 12 2 17 -3 17 -17 0 -12 4 -21 8 -21 12 0 1 64 -12 72
-20 14 -30 8 -11 -6z"/>
<path d="M10981 287 c-24 -24 2 -79 30 -61 7 4 10 2 7 -7 -3 -8 -13 -13 -23
-12 -12 1 -14 -2 -6 -10 17 -17 41 11 40 47 0 29 -1 30 -10 8 -11 -30 -34 -23
-34 9 0 19 5 24 23 22 12 -2 22 1 22 5 0 12 -36 12 -49 -1z"/>
<path d="M11134 266 c1 -26 6 -41 16 -43 10 -3 11 -2 3 4 -6 4 -13 24 -16 43
-4 34 -4 33 -3 -4z"/>
<path d="M11183 260 c0 -25 2 -35 4 -22 2 12 2 32 0 45 -2 12 -4 2 -4 -23z"/>
<path d="M11212 240 l1 -55 6 50 c5 43 9 50 28 49 12 0 20 3 17 8 -3 4 -16 7
-29 6 -24 -2 -25 -6 -23 -58z"/>
<path d="M11336 285 c14 -11 15 -14 4 -15 -12 0 -12 -2 -2 -9 7 -4 12 -14 10
-21 -2 -7 2 -14 8 -17 14 -5 5 59 -10 69 -21 14 -30 8 -10 -7z"/>
<path d="M11473 289 c10 -6 17 -23 18 -42 1 -18 3 -24 6 -14 8 30 -6 67 -25
67 -16 -1 -16 -1 1 -11z"/>
<path d="M11803 260 c0 -25 2 -35 4 -22 2 12 2 32 0 45 -2 12 -4 2 -4 -23z"/>
<path d="M11862 288 c-21 -21 -14 -35 18 -30 32 5 40 26 14 36 -20 8 -18 8
-32 -6z m33 -8 c3 -5 -3 -10 -15 -10 -12 0 -18 5 -15 10 3 6 10 10 15 10 5 0
12 -4 15 -10z"/>
<path d="M11965 286 c17 -12 17 -13 -9 -20 -29 -7 -34 -40 -6 -42 10 -1 11 1
2 3 -17 6 -10 27 11 31 12 2 17 -3 17 -17 0 -12 4 -21 8 -21 12 0 1 64 -12 72
-20 14 -30 8 -11 -6z"/>
<path d="M12013 260 c0 -25 2 -35 4 -22 2 12 2 32 0 45 -2 12 -4 2 -4 -23z"/>
<path d="M12050 257 c4 -41 5 -41 8 -8 2 18 0 37 -5 42 -5 5 -6 -11 -3 -34z"/>
<path d="M12077 293 c6 -4 13 -24 16 -43 4 -34 4 -33 3 4 -1 26 -6 41 -16 43
-10 3 -11 2 -3 -4z"/>
<path d="M12124 289 c-3 -6 -1 -16 5 -22 9 -9 10 -7 5 7 -6 16 -4 18 14 14 12
-4 20 -2 16 3 -7 12 -31 11 -40 -2z"/>
<path d="M12263 260 c0 -25 2 -35 4 -22 2 12 2 32 0 45 -2 12 -4 2 -4 -23z"/>
<path d="M12293 260 c0 -25 2 -35 4 -22 2 12 2 32 0 45 -2 12 -4 2 -4 -23z"/>
<path d="M12318 293 c6 -3 13 -21 13 -41 l2 -37 6 34 c9 49 29 51 34 4 l4 -38
-1 40 c-1 38 -2 40 -36 41 -19 1 -29 -1 -22 -3z"/>
<path d="M12410 285 c-15 -18 -10 -45 12 -59 12 -7 21 -7 28 0 8 8 4 10 -11
10 -12 -1 -24 5 -26 12 -3 7 6 12 24 13 l28 1 -30 7 c-28 6 -29 7 -10 19 11 6
15 12 9 12 -6 0 -17 -7 -24 -15z"/>
<path d="M12522 288 c-22 -22 -7 -68 22 -68 5 0 2 6 -8 13 -25 18 -17 52 11
51 12 0 20 3 17 8 -7 12 -28 10 -42 -4z"/>
<path d="M12607 293 c-3 -5 5 -8 18 -8 13 0 21 3 18 8 -2 4 -10 7 -18 7 -8 0
-16 -3 -18 -7z"/>
<path d="M12683 260 c0 -25 2 -35 4 -22 2 12 2 32 0 45 -2 12 -4 2 -4 -23z"/>
<path d="M12707 293 c6 -4 13 -24 16 -43 4 -34 4 -33 3 4 -1 26 -6 41 -16 43
-10 3 -11 2 -3 -4z"/>
<path d="M12747 293 c6 -4 13 -24 16 -43 4 -34 4 -33 3 4 -1 26 -6 41 -16 43
-10 3 -11 2 -3 -4z"/>
<path d="M10440 280 c0 -5 -12 -10 -26 -10 -18 0 -25 -5 -22 -16 4 -24 35 -41
48 -28 8 8 4 10 -11 10 -12 -1 -24 5 -26 12 -3 7 5 12 21 12 16 0 26 6 26 15
0 8 -2 15 -5 15 -3 0 -5 -4 -5 -10z"/>
<path d="M11522 285 c0 -5 5 -26 12 -45 12 -32 13 -33 19 -11 3 13 3 20 -1 17
-3 -4 -11 6 -18 21 -7 16 -12 24 -12 18z"/>
<path d="M12593 256 c3 -26 33 -44 48 -29 9 9 7 11 -9 6 -16 -4 -24 1 -32 18
-7 17 -9 19 -7 5z"/>
<path d="M10290 251 c0 -6 4 -13 10 -16 6 -3 7 1 4 9 -7 18 -14 21 -14 7z"/>
<path d="M10511 253 c-1 -17 16 -25 25 -12 4 7 3 9 -4 5 -5 -3 -13 0 -15 6 -4
9 -6 10 -6 1z"/>
<path d="M11305 250 c-8 -13 3 -30 18 -30 8 0 7 3 -2 9 -7 5 -10 14 -7 20 4 6
5 11 2 11 -3 0 -8 -4 -11 -10z"/>
<path d="M12166 246 c6 -16 4 -18 -19 -14 -15 3 -24 1 -21 -3 7 -13 42 -11 50
2 3 6 1 16 -5 22 -9 9 -10 7 -5 -7z"/>
<path d="M11755 240 c-3 -5 -1 -10 4 -10 6 0 11 5 11 10 0 6 -2 10 -4 10 -3 0
-8 -4 -11 -10z"/>
<path d="M11900 241 c0 -8 -8 -11 -20 -8 -11 3 -18 1 -14 -4 3 -5 11 -9 19 -9
16 0 30 18 21 27 -3 4 -6 1 -6 -6z"/>
<path d="M11245 230 c-16 -7 -17 -9 -3 -9 9 -1 20 4 23 9 7 11 7 11 -20 0z"/>
</g>
</svg>
